<svg width="403" height="883" viewBox="0 0 403 883" fill="none" xmlns="http://www.w3.org/2000/svg">
<path d="M105.025 375.946L106.131 376.142L105.025 375.946Z" fill="#F3BD0B"/>
<path d="M46.5632 349.518L47.4967 348.961C47.8226 348.517 47.8094 348.111 47.4812 348.109C42.5525 347.804 33.6872 348.47 21.4162 350.106C17.2383 350.687 18.1882 348.148 18.3236 347.703C18.6242 346.735 27.2814 344.049 32.2816 342.575C38.9199 341.455 45.5249 340.887 51.0071 340.8L51.9126 340.237C52.2428 339.789 52.2255 339.386 51.9027 339.364C42.8764 338.811 32.8103 340.093 21.959 343.214C20.9833 343.497 20.3692 343.107 20.3786 342.309C20.3615 340.281 35.0206 335.694 37.2229 335.016C40.854 333.888 44.5116 333.146 48.1965 332.722C65.6072 330.667 83.2459 335.621 99.965 341.104C113.313 345.483 128.38 347.17 140.163 355.028C142.953 356.866 145.642 359.37 146.141 362.663C146.579 365.599 145.082 368.562 142.881 370.538C140.686 372.493 137.854 373.607 135.014 374.432C122.028 378.119 108.471 376.178 95.2293 375.441C83.1864 374.781 72.2782 375.265 60.5066 371.907C56.4153 370.727 52.2859 369.269 47.7789 367.821L46.6725 367.162C45.9933 366.115 47.5325 365.052 48.7379 364.85C52.8654 364.115 57.0937 364.523 61.2487 364.22C62.5519 364.129 64.4242 363.656 66.6372 362.999C65.0101 362.483 63.372 361.955 61.7104 361.47C49.7776 357.98 36.578 355.962 21.1353 358.165C19.126 358.447 17.2401 358.583 16.3761 357.211C15.4977 355.814 16.5522 355.022 17.404 354.354C26.3413 351.545 40.7898 349.177 46.5632 349.518Z" fill="#F3BD0B"/>
<path d="M0.184326 342.125L0.107754 341.819L0.184326 342.125Z" fill="#F3BD0B"/>
<path d="M514.701 208.36C512.086 223.721 509.103 239.085 505.291 254.223C498.567 281.093 489.357 307.203 475.235 330.951C427.348 411.209 322.735 426.983 236.51 415.997C213.989 413.166 191.384 410.325 168.822 407.447C159.009 406.192 121.809 406.508 114.96 399.58C112.705 397.267 112.525 393.619 112.492 390.399C112.475 377.503 112.454 364.681 112.433 351.781L112.414 350.211C112.406 347.211 112.5 343.962 114.273 341.541C116.361 338.767 120.096 337.957 123.505 337.6C201.652 329.086 290.386 367.992 358.789 312.127C383.189 292.243 396.357 261.961 406.032 232.036C415.715 202.11 422.976 170.959 439.018 143.871C451.431 122.967 478.103 109.423 499.732 125.319C501.091 126.266 502.324 127.33 503.471 128.47C523.304 147.438 518.725 184.798 514.701 208.36Z" fill="#E953B1"/>
<path d="M88.356 536.049C83.6582 535.292 79.2407 540.279 74.9777 542.707C73.5571 543.517 72.1303 544.315 70.6948 545.095C61.6373 550.018 57.7258 561.145 61.8338 570.599L61.9974 570.933L88.4094 644.665C89.582 643.349 90.8659 642.133 92.3625 641.094C102.084 634.332 110.715 631.095 121.806 627.823C126.926 626.31 132.2 625.815 137.283 626.399C134.001 626.035 124.081 598.674 122.589 595.569C114.392 578.297 105.668 561.61 96.815 544.788C95.4843 542.269 94.0922 539.688 91.9297 537.837C90.7254 536.789 89.5187 536.247 88.356 536.049Z" fill="#F4BE0A"/>
<path d="M87.0752 633.837C102.13 626.187 114.674 619.49 130.674 614.022C145.35 647.048 186.775 715.856 228.748 695.538C241.059 689.58 249.557 678.154 256.175 666.664C280.295 624.794 302.072 573.616 337.135 536.987C361.377 511.651 449.871 450.327 470.005 504.18C483.668 540.701 466.34 582.613 447.824 619.487C432.823 649.407 416.824 678.954 399.912 708.047C382.972 737.147 364.925 766.035 341.531 791.055C321.448 812.538 296.362 831.492 267.445 837.852C214.846 849.424 165.462 816.389 136.452 776.322C105.113 733.107 90.8356 692.27 86.1641 646.542C85.9065 643.91 86.2817 639.245 87.0752 633.837Z" fill="#8459B3"/>
<path d="M115.263 526.108C115.248 523.651 114.984 520.687 112.104 520.248C110.011 519.943 107.971 521.408 107.219 523.451C103.155 534.396 101.017 546.008 100.893 557.57C100.311 557.853 99.6886 558.118 99.0778 558.343C92.8447 560.653 88.4999 566.554 88.7138 573.249L88.8292 576.55C88.8633 577.386 88.8983 578.287 89.4021 578.93C89.8831 579.59 90.727 579.841 91.5196 580.05C125.984 589.335 115.402 550.533 115.263 526.108Z" fill="#F4BE0A"/>
<path d="M93.9598 546.958C91.9064 548.076 89.3698 547.314 88.2457 545.28L66.7687 505.87C65.6434 503.833 66.3957 501.278 68.4479 500.158C70.476 499.053 73.0379 499.802 74.162 501.836L95.6402 541.249C96.739 543.296 95.9866 545.85 93.9598 546.958Z" fill="#F4BE0A"/>
<path d="M72.4414 578.225C71.1076 578.701 69.5171 578.143 68.4436 577.105C67.2605 575.909 66.6593 574.301 66.2057 572.994L61.6564 560.405L63.9467 559.578L68.4708 572.179C68.8658 573.24 69.3024 574.448 70.0321 575.169C70.5745 575.699 71.4115 575.871 71.7475 575.534C72.0429 575.241 72.1472 574.56 72.1957 573.956C72.8974 567.85 72.4843 561.388 70.9646 555.29L73.306 554.696C74.5345 558.795 76.8008 564.178 79.4205 567.024C79.9913 567.612 80.2888 567.708 80.4159 567.711L80.6685 567.587C81.0394 567.129 81.1604 565.907 80.989 564.727C80.0165 558.148 78.7638 551.509 77.2573 544.991L79.6245 544.512C81.1658 551.101 82.4305 557.828 83.4112 564.488C83.6514 566.063 83.5629 568.182 82.5949 569.403C82.0728 570.064 81.3591 570.399 80.5373 570.385C79.1467 570.362 78.117 569.222 77.7773 568.849C76.6783 567.696 75.7207 566.257 74.8848 564.746C75.0823 568.022 75.0206 571.281 74.6411 574.467C74.5714 575.22 74.3911 576.641 73.4921 577.555C73.1764 577.87 72.8149 578.091 72.4414 578.225Z" fill="#E37618"/>
<path d="M85.7164 580.231C83.9996 575.776 83.9364 570.666 85.6731 566.221C87.8179 560.691 92.7311 556.267 98.4415 554.68L97.7076 551.971C91.1384 553.788 85.5383 558.857 83.0438 565.207C81.1337 570.129 81.145 575.773 82.9082 580.77C83.8551 580.528 84.7765 580.36 85.7164 580.231Z" fill="#E37618"/>
</svg>
