<svg width="459" height="935" viewBox="0 0 459 935" fill="none" xmlns="http://www.w3.org/2000/svg">
<path d="M309.797 476.863C315.665 472.33 314.062 474.224 315.665 472.33C316.148 471.75 316.58 471.138 316.964 470.499C317.379 469.803 316.796 468.948 315.993 469.048C313.908 469.309 311.835 469.569 309.781 469.826C297.485 471.384 285.871 472.855 275.749 473.175L274.618 472.754L274.105 471.629C274.088 470.747 274.796 470.007 275.685 469.979C285.651 469.67 297.194 468.205 309.416 466.659C311.731 466.361 314.081 466.065 316.434 465.773C318.034 465.575 319.368 464.397 319.673 462.823L319.704 462.68L319.713 462.635C320.182 460.202 318.134 458.043 315.655 458.336C313.661 458.567 311.622 458.816 309.552 459.068C296.754 460.632 283.52 462.251 274.395 461.369L273.473 460.961L272.966 459.62C273.061 458.745 273.86 458.101 274.745 458.189C283.519 459.034 296.571 457.44 309.198 455.896C312.015 455.553 314.774 455.215 317.45 454.909C319.383 454.691 320.819 453.025 320.779 451.099L320.777 451.02C320.729 448.879 318.819 447.277 316.675 447.53C301.981 449.245 287.141 450.587 272.438 451.509L271.26 451.101L270.751 450.019C270.705 449.133 271.391 448.378 272.276 448.319C287.312 447.377 302.498 445.988 317.524 444.213C318.692 444.076 319.338 442.796 318.772 441.785C318.207 440.774 317.499 439.913 316.614 439.26C311.56 435.491 299.09 437.516 293.168 437.705C281.891 438.063 265.458 437.352 247.415 436.46C248.819 436.999 266.959 415.226 263.961 413.02C262.917 412.247 261.405 412.384 260.237 412.994C259.073 413.602 258.174 414.599 257.279 415.553C249.425 423.923 239.693 430.56 229.031 434.847C219.329 438.749 188.223 442.369 178.212 443.798L178.205 443.836C177.384 443.939 176.578 444.121 175.821 444.457C168.169 447.832 166.973 461.991 173.151 476.075C177.642 486.329 135.889 498.482 142.4 500.448C83.0637 496.344 150.688 500.565 150.681 500.728L192.552 495.964C194.543 496.352 196.458 496.237 198.184 495.473L198.952 495.045C220.182 491.952 241.434 488.974 262.721 486.362C285.682 483.539 307.337 478.768 309.797 476.863" fill="#F6A0D4"/>
<path d="M201.406 439.508C200.442 438.771 199.436 438.044 198.338 437.347C185.617 429.283 166.275 428.659 152.311 425.095C131.509 419.788 111.082 412.397 90.3854 406.508C25.8653 388.163 -9.007 349.868 -15.8772 281.491C-19.8463 241.927 -15.6744 201.595 -22.2194 162.397C-32.9236 98.3069 -109.408 69.5232 -143.297 137.419C-233.072 317.272 -29.574 519.175 146.289 506.135C159.991 505.121 170.515 508.924 182.661 504.136C195.114 484.804 201.999 463.091 201.406 439.508" fill="#8FDBF5"/>
<path d="M159.267 426.583C148.476 452.237 141.276 479.471 138.116 506.641L134.251 506.817C137.444 479.31 144.688 451.807 155.546 425.837L159.267 426.583Z" fill="white"/>
<path d="M249.517 435.605L246.585 435.272C244.91 448.406 236.086 460.742 224.114 466.692L225.411 469.31C238.254 462.923 247.715 449.692 249.517 435.605Z" fill="#EE52B1"/>
<path opacity="0.7" d="M401.383 592.949C382.165 591.865 361.806 594.453 343.058 599.67C337.478 601.21 332.048 602.998 326.794 604.996C262.744 629.346 201.053 689.988 145.339 729.309C140.838 732.484 136.229 735.712 130.933 737.187C121.136 739.926 110.809 736.288 101.339 732.595C59.1716 716.161 17.8318 697.613 -22.5004 677.099C-58.0826 658.99 -90.6172 637.203 -132.527 638.997C-168.04 640.511 -205.514 668.319 -202.559 703.731C-200.796 724.702 -185.774 742.218 -169.101 754.998C-98.5727 809.063 -0.0564255 825.334 86.8028 831.492C113.492 833.395 141.415 833.619 165.615 822.203C185.771 812.687 201.46 795.962 216.627 779.627C263.194 729.473 309.839 663.736 375.332 637.334L376.113 636.888C382.958 633.029 390.517 630.322 398.084 627.832C403.045 626.222 410.927 626.275 414.665 622.398C415.673 621.352 414.594 619.667 413.104 619.817C397.689 621.691 380.443 625.203 367.199 631.622C366.31 632.07 365.222 631.729 364.748 630.9C364.274 630.071 364.574 629.029 365.467 628.589C380.326 621.339 400.041 617.752 416.777 615.976L418.17 614.794C418.362 613.757 418.495 612.673 418.551 611.621C418.607 610.668 417.785 609.87 416.783 609.914C400.115 610.742 382.278 614.672 362.651 621.853C361.727 622.166 360.658 621.748 360.289 620.856C359.923 619.974 360.336 618.987 361.291 618.652C381.28 611.353 399.579 607.327 416.594 606.469C417.6 606.433 418.317 605.584 418.088 604.666L417.682 602.99L416.008 601.765C396.557 601.766 377.182 605.156 359.164 611.689C358.243 612.06 357.171 611.582 356.782 610.718C356.417 609.836 356.848 608.822 357.776 608.518C375.024 602.235 393.524 598.807 412.182 598.377C413.706 598.362 414.349 596.534 413.136 595.633L412.961 595.472C410.494 593.767 404.103 593.072 401.383 592.949" fill="#F4BE0A"/>
</svg>
