<svg xmlns="http://www.w3.org/2000/svg" xmlns:xlink="http://www.w3.org/1999/xlink" width="1920" height="818" viewBox="0 0 1920 818">
  <defs>
    <clipPath id="clip-header-bg">
      <rect width="1920" height="818"/>
    </clipPath>
  </defs>
  <g id="header-bg" clip-path="url(#clip-header-bg)">
    <rect width="1920" height="818" fill="#fff"/>
    <g id="undraw_mobile_testing_reah" transform="translate(1079 121.994)">
      <path id="Path_1" data-name="Path 1" d="M448.684,351.812c-26.317-8.517-54.141-15.657-82.578-14.921-41.806,1.086-82,20.568-101.827,49.362-16.758,24.4-18.994,53.078-26.309,80.21-9.013,33.428-26.12,65.15-44.378,96.174-9.807,16.663-20.153,33.675-21.858,51.985-2.339,25.42,13.064,50.834,37.347,67.868s56.6,26.113,89.063,28.233c17.275,1.122,35.329.255,50.71-5.967,16.269-6.557,28.167-18.557,44.5-25.042,15.14-6,32.786-6.776,49.77-5.894a276.911,276.911,0,0,1,64.888,11.118c23.672,7.082,45.668,17.275,69.289,24.459s50.025,11.249,74.229,5.472c22.725-5.421,40.75-18.783,57-32.32a619.8,619.8,0,0,0,72.822-71.4c14.681-17.042,28.357-35.038,34.914-54.95,12.524-38.076-4.255-81.187-41.8-107.408-31.1-21.734-72.946-31.329-113.922-37.158-37.369-5.37-80.6-5.9-114.949-19.577C512.843,378.974,483.044,362.93,448.684,351.812Z" transform="translate(-147.026 -120.972)" fill="#00bfa6" opacity="0.1"/>
      <ellipse id="Ellipse_1" data-name="Ellipse 1" cx="16.838" cy="2.31" rx="16.838" ry="2.31" transform="translate(620.276 355.975)" fill="#00bfa6" opacity="0.1"/>
      <ellipse id="Ellipse_2" data-name="Ellipse 2" cx="16.838" cy="2.31" rx="16.838" ry="2.31" transform="translate(555.774 362.518)" fill="#00bfa6" opacity="0.1"/>
      <ellipse id="Ellipse_3" data-name="Ellipse 3" cx="16.838" cy="2.31" rx="16.838" ry="2.31" transform="translate(479.797 353.666)" fill="#00bfa6" opacity="0.1"/>
      <ellipse id="Ellipse_4" data-name="Ellipse 4" cx="11.971" cy="1.647" rx="11.971" ry="1.647" transform="translate(586.455 381.804)" fill="#00bfa6" opacity="0.1"/>
      <ellipse id="Ellipse_5" data-name="Ellipse 5" cx="11.971" cy="1.647" rx="11.971" ry="1.647" transform="translate(519.512 380.157)" fill="#00bfa6" opacity="0.1"/>
      <path id="Path_2" data-name="Path 2" d="M896.623,492.943s23.621-77.42-3.694-108.428c-20.4-23.2-43.628-20.4-54.01-17.552a19.177,19.177,0,0,0-12.386,10.295c-3.643,7.832-2.973,20.546,22.659,35.388,42.921,24.852,45.6,58.943,45.6,58.943Z" transform="translate(-324.375 -128.64)" fill="#00bfa6"/>
      <path id="Path_3" data-name="Path 3" d="M849.2,382.73s69.624,21.77,54.01,115" transform="translate(-330.963 -133.427)" fill="none" stroke="#565987" stroke-miterlimit="10" stroke-width="1"/>
      <path id="Path_4" data-name="Path 4" d="M902.337,393.44s-9.588,6.463-6.557,16.167" transform="translate(-343.444 -136.334)" fill="none" stroke="#565987" stroke-miterlimit="10" stroke-width="1"/>
      <path id="Path_5" data-name="Path 5" d="M858.79,399.966s5.829-5.96,12.991-2.674" transform="translate(-333.565 -137.111)" fill="none" stroke="#565987" stroke-miterlimit="10" stroke-width="1"/>
      <path id="Path_6" data-name="Path 6" d="M896.56,441.745s10.288-5.217,12.947,1.319" transform="translate(-343.817 -148.909)" fill="none" stroke="#565987" stroke-miterlimit="10" stroke-width="1"/>
      <path id="Path_7" data-name="Path 7" d="M928.579,457.406s-7.73-.612-7.869,3.082" transform="translate(-350.371 -153.685)" fill="none" stroke="#565987" stroke-miterlimit="10" stroke-width="1"/>
      <path id="Path_8" data-name="Path 8" d="M909.094,520.91s-27.686-56.269-35.256-55.038c-3.643.583-5.275,4.138-6.025,7.7a22.644,22.644,0,0,0,1.508,13.7C873.248,496.276,883.791,513.376,909.094,520.91Z" transform="translate(-335.892 -155.988)" fill="#00bfa6"/>
      <path id="Path_9" data-name="Path 9" d="M876.53,480.54s29.034,42.1,34.644,43.948" transform="translate(-338.38 -159.974)" fill="none" stroke="#565987" stroke-miterlimit="10" stroke-width="1"/>
      <line id="Line_1" data-name="Line 1" x2="6.776" transform="translate(535.483 327.138)" fill="none" stroke="#565987" stroke-miterlimit="10" stroke-width="1"/>
      <line id="Line_2" data-name="Line 2" x2="10.623" y2="0.452" transform="translate(543.6 342.54)" fill="none" stroke="#565987" stroke-miterlimit="10" stroke-width="1"/>
      <line id="Line_3" data-name="Line 3" x1="1.151" y2="5.53" transform="translate(548.911 330.22)" fill="none" stroke="#565987" stroke-miterlimit="10" stroke-width="1"/>
      <line id="Line_4" data-name="Line 4" x1="0.204" y2="5.027" transform="translate(561.151 347.057)" fill="none" stroke="#565987" stroke-miterlimit="10" stroke-width="1"/>
      <path id="Path_10" data-name="Path 10" d="M923.52,520.91s27.686-56.269,35.256-55.038c3.643.583,5.275,4.138,6.025,7.7a22.645,22.645,0,0,1-1.508,13.7C959.367,496.276,948.824,513.376,923.52,520.91Z" transform="translate(-351.134 -155.988)" fill="#00bfa6"/>
      <path id="Path_11" data-name="Path 11" d="M958.724,480.54s-29.034,42.1-34.644,43.948" transform="translate(-351.286 -159.974)" fill="none" stroke="#565987" stroke-miterlimit="10" stroke-width="1"/>
      <line id="Line_5" data-name="Line 5" x1="6.776" transform="translate(603.329 327.138)" fill="none" stroke="#565987" stroke-miterlimit="10" stroke-width="1"/>
      <line id="Line_6" data-name="Line 6" x1="10.623" y2="0.452" transform="translate(591.366 342.54)" fill="none" stroke="#565987" stroke-miterlimit="10" stroke-width="1"/>
      <line id="Line_7" data-name="Line 7" x2="1.151" y2="5.53" transform="translate(595.526 330.22)" fill="none" stroke="#565987" stroke-miterlimit="10" stroke-width="1"/>
      <line id="Line_8" data-name="Line 8" x2="0.211" y2="5.027" transform="translate(584.226 347.057)" fill="none" stroke="#565987" stroke-miterlimit="10" stroke-width="1"/>
      <path id="Path_12" data-name="Path 12" d="M857.718,556.625a4.837,4.837,0,0,1-1.574-2.375,2.12,2.12,0,0,1,1.1-2.426c1.013-.386,2.091.313,2.914,1.027s1.756,1.508,2.827,1.362a4.306,4.306,0,0,1-1.326-4.029,1.692,1.692,0,0,1,.364-.823c.561-.6,1.581-.335,2.251.131,2.135,1.508,2.732,4.408,2.747,7.016a13.626,13.626,0,0,0,0-2.914,2.965,2.965,0,0,1,1.086-2.557,3.213,3.213,0,0,1,1.654-.393,3.439,3.439,0,0,1,2.689.765,2.686,2.686,0,0,1-.109,3.3,10.478,10.478,0,0,1-2.776,2.186,6.106,6.106,0,0,0-1.989,1.894,2.343,2.343,0,0,0-.146.335h-6.018a16.6,16.6,0,0,1-3.694-2.5Z" transform="translate(-332.829 -178.559)" fill="#00bfa6"/>
      <path id="Path_13" data-name="Path 13" d="M1002.388,525.517a4.773,4.773,0,0,1-1.574-2.375,2.113,2.113,0,0,1,1.1-2.419c1.013-.386,2.091.313,2.914,1.02s1.763,1.515,2.834,1.362a4.291,4.291,0,0,1-1.333-4.029,1.611,1.611,0,0,1,.371-.816c.561-.6,1.574-.342,2.244.131,2.135,1.5,2.732,4.372,2.747,7.016a13.233,13.233,0,0,0,0-2.914,2.965,2.965,0,0,1,1.086-2.557,3.314,3.314,0,0,1,1.654-.386,3.41,3.41,0,0,1,2.688.729,2.656,2.656,0,0,1-.109,3.293,10.359,10.359,0,0,1-2.776,2.229,6.107,6.107,0,0,0-1.989,1.894,1.787,1.787,0,0,0-.146.335h-6.018A16.791,16.791,0,0,1,1002.388,525.517Z" transform="translate(-372.094 -170.117)" fill="#00bfa6"/>
      <path id="Path_14" data-name="Path 14" d="M954.169,556.625a4.838,4.838,0,0,1-1.574-2.375,2.12,2.12,0,0,1,1.1-2.426c1.013-.386,2.091.313,2.914,1.027s1.756,1.508,2.827,1.362a4.314,4.314,0,0,1-1.333-4.029,1.772,1.772,0,0,1,.372-.823c.561-.6,1.581-.335,2.251.131,2.135,1.508,2.732,4.408,2.747,7.016a13.623,13.623,0,0,0,.036-2.914,2.965,2.965,0,0,1,1.086-2.557,3.214,3.214,0,0,1,1.654-.393,3.439,3.439,0,0,1,2.688.765,2.686,2.686,0,0,1-.109,3.3,10.477,10.477,0,0,1-2.776,2.186,6.1,6.1,0,0,0-1.989,1.894,2.337,2.337,0,0,0-.146.335H957.9A16.594,16.594,0,0,1,954.169,556.625Z" transform="translate(-359.007 -178.559)" fill="#00bfa6"/>
      <path id="Path_15" data-name="Path 15" d="M816.163,496.58s-2.259,2.951,1.042,7.4,6.011,8.219,4.918,10.994c0,0-4.976-8.269-9.027-8.386S811.7,501.556,816.163,496.58Z" transform="translate(-320.621 -164.327)" fill="#00bfa6"/>
      <path id="Path_16" data-name="Path 16" d="M816.163,496.58a3.56,3.56,0,0,0-.466.925c-3.949,4.641-6.055,8.976-2.259,9.086,3.541.1,7.789,6.426,8.8,8.014a1.12,1.12,0,0,1-.117.364s-4.976-8.269-9.027-8.386S811.7,501.556,816.163,496.58Z" transform="translate(-320.621 -164.327)" opacity="0.1"/>
      <path id="Path_17" data-name="Path 17" d="M812.29,501.493c0,1.042.117,1.88.262,1.88s.255-.838.255-1.88-.146-.546-.284-.546S812.29,500.458,812.29,501.493Z" transform="translate(-320.945 -165.481)" fill="#ffd037"/>
      <path id="Path_18" data-name="Path 18" d="M810.1,503.177c.911.5,1.712.8,1.778.678s-.612-.634-1.523-1.129-.554-.138-.626,0S809.192,502.682,810.1,503.177Z" transform="translate(-320.2 -165.926)" fill="#ffd037"/>
      <path id="Path_19" data-name="Path 19" d="M832.09,496.58s2.259,2.951-1.042,7.4-6.011,8.219-4.911,10.994c0,0,4.969-8.269,9.02-8.386S836.549,501.556,832.09,496.58Z" transform="translate(-324.635 -164.327)" fill="#00bfa6"/>
      <path id="Path_20" data-name="Path 20" d="M832.136,496.58a3.561,3.561,0,0,1,.466.925c3.949,4.641,6.055,8.976,2.259,9.086-3.541.1-7.789,6.426-8.8,8.014a3.087,3.087,0,0,0,.124.364s4.969-8.269,9.02-8.386S836.6,501.556,832.136,496.58Z" transform="translate(-324.682 -164.327)" opacity="0.1"/>
      <path id="Path_21" data-name="Path 21" d="M839.967,501.493c0,1.042-.117,1.88-.262,1.88s-.255-.838-.255-1.88.146-.546.284-.546S839.967,500.458,839.967,501.493Z" transform="translate(-328.316 -165.481)" fill="#ffd037"/>
      <path id="Path_22" data-name="Path 22" d="M841.476,503.177c-.911.5-1.712.8-1.778.678s.612-.634,1.523-1.129.554-.138.627,0S842.387,502.682,841.476,503.177Z" transform="translate(-328.383 -165.926)" fill="#ffd037"/>
      <path id="Path_23" data-name="Path 23" d="M830.418,520.031s-6.3-.189-8.2-1.545-9.7-2.973-10.2-.8-9.472,10.8-2.361,10.856,16.554-1.107,18.448-2.266S830.418,520.031,830.418,520.031Z" transform="translate(-319.488 -169.768)" fill="#a8a8a8"/>
      <path id="Path_24" data-name="Path 24" d="M809.55,529.049c7.118.058,16.546-1.107,18.448-2.266,1.457-.874,2.018-4.036,2.186-5.494h.2s-.393,5.1-2.3,6.244-11.322,2.324-18.448,2.266c-2.055,0-2.761-.729-2.725-1.829C807.233,528.634,808.02,529.042,809.55,529.049Z" transform="translate(-319.487 -171.034)" opacity="0.2"/>
      <circle id="Ellipse_6" data-name="Ellipse 6" cx="15.759" cy="15.759" r="15.759" transform="translate(78.221 28.337)" fill="#00bfa6" opacity="0.1"/>
      <circle id="Ellipse_7" data-name="Ellipse 7" cx="15.759" cy="15.759" r="15.759" transform="translate(350.793 3.463)" fill="#00bfa6" opacity="0.1"/>
      <circle id="Ellipse_8" data-name="Ellipse 8" cx="15.759" cy="15.759" r="15.759" transform="translate(600.808 65.72)" fill="#00bfa6" opacity="0.1"/>
      <circle id="Ellipse_9" data-name="Ellipse 9" cx="26.411" cy="26.411" r="26.411" transform="translate(0 162.185)" fill="#00bfa6" opacity="0.1"/>
      <circle id="Ellipse_10" data-name="Ellipse 10" cx="26.411" cy="26.411" r="26.411" transform="translate(25.318 292.603)" fill="#00bfa6" opacity="0.1"/>
      <circle id="Ellipse_11" data-name="Ellipse 11" cx="26.411" cy="26.411" r="26.411" transform="translate(519.971 177.566)" fill="#00bfa6" opacity="0.1"/>
      <path id="Path_25" data-name="Path 25" d="M579.481,387.09c-.933.087-1.88.044-2.805.189a12.772,12.772,0,0,0-4.372,1.756c-6.63,3.774-12.889,8.962-15.635,16.073a2.186,2.186,0,0,0-.2,1.421,2.4,2.4,0,0,0,.772,1.005l2.579,2.346a3.643,3.643,0,0,0,1.144.8,3.738,3.738,0,0,0,2.113-.066c7.089-1.625,14.623-3.5,19.6-8.8,2.361-2.514,4.539-5.974,8.015-6.069a36.81,36.81,0,0,1,4.255.729c1.435.168,3.162-.444,3.5-1.843a3.876,3.876,0,0,0-.233-2.062l-2.142-7.133c-.583-1.953-6.463-2.055-8.422-1.7C584.661,384.249,582.65,386.8,579.481,387.09Z" transform="translate(-251.5 -133.657)" fill="#65617d"/>
      <path id="Path_26" data-name="Path 26" d="M614.127,436.317a59.992,59.992,0,0,1-.306,7.33,21.382,21.382,0,0,1-1.814,5.5,36.114,36.114,0,0,1-4.954,7.8,15.358,15.358,0,0,1-6.783,5.1c-2.732.86-6.091.24-7.8-2.062-1.392-1.872-1.457-4.372-1.355-6.71.248-5.749,1.151-11.577,3.73-16.721,1.107-2.186,2.514-4.27,3.643-6.477,2.361-4.583,3.708-10.018,7.781-13.18a25.582,25.582,0,0,0,8.087,2.222c1.086.117,4.189.189,4.554,1.581.248.94-1.792,3.57-2.186,4.5a30.683,30.683,0,0,0-2.6,11.118Z" transform="translate(-260.907 -142.701)" fill="#65617d"/>
      <path id="Path_27" data-name="Path 27" d="M582.2,285.678c.874,2.229,1.982,4.415,2.186,6.79.146,1.457,0,2.914,0,4.372a28.555,28.555,0,0,0,.991,5.9l4.058,16.612a21.28,21.28,0,0,1,.9,7.57,39.9,39.9,0,0,0-.816,5.027,19.5,19.5,0,0,0,.612,3.811,23.476,23.476,0,0,1-.612,11.585,1.733,1.733,0,0,0-.124.9c.1.474.561.765.976.991a41.611,41.611,0,0,0,14.062,4.685,137.743,137.743,0,0,0,9.253-33.041c1.035-6.878,1.537-13.843,2.863-20.67a1.69,1.69,0,0,1,.474-1.049c.5-.415,1.246-.153,1.829.124a163.235,163.235,0,0,1,21.428,12.386,26.768,26.768,0,0,0,4.947-22.156,45.9,45.9,0,0,0-3.643-9.53,53.831,53.831,0,0,0-6.193-10.4c-5.406-6.776-13.333-11.1-21.493-14.04-4.962-1.792-10.069-3.118-15.169-4.474-2.856-.765-7.643-3.257-10.419-1.319-2.914,2.018-4.852,7.024-6.047,10.2a37.579,37.579,0,0,0-2.375,12.306,34.766,34.766,0,0,0,2.317,13.421Z" transform="translate(-257.864 -97.139)" fill="#3f3d56"/>
      <path id="Path_28" data-name="Path 28" d="M646.206,321.5c-1.523,1.661-.24,4.313-.532,6.557a9.057,9.057,0,0,1-1.071,2.878l-6.973,13.69a25.386,25.386,0,0,0-2.594,6.557c-.954,4.94,1.005,10.492-1.5,14.856-.809,1.406-2.062,2.616-2.4,4.2a33.678,33.678,0,0,0-.124,3.541,23.6,23.6,0,0,1-1.311,3.942,27.462,27.462,0,0,0-.678,3.876,22.8,22.8,0,0,1-8.189,14.164,13.027,13.027,0,0,1-9.034,3.075c-3.25-.277-6.477-2.485-7.14-5.676-.226-1.086-.182-2.3-.86-3.177-.962-1.26-2.987-1.311-3.912-2.6l3.585-5.9a13.943,13.943,0,0,0,2.433-5.872c.219-2.616-1.042-5.224-.59-7.81.386-2.222,1.982-4.073,2.463-6.273.6-2.732-.6-5.494-1.246-8.218-1.588-6.71.189-13.7,1.96-20.4,2.353-8.86,4.765-17.858,9.53-25.69C627.533,312.342,636.276,317.26,646.206,321.5Z" transform="translate(-263.297 -112.933)" fill="#3f3d56"/>
      <path id="Path_29" data-name="Path 29" d="M642.809,134.276c.568,1.545.262,3.257.153,4.9-.255,3.643.517,7.286.342,10.98s-1.312,7.22-2.1,10.812c-2.237,10.251-1.7,20.932-3.723,31.227-2.5,12.75-8.889,24.626-10.149,37.566-.4,4.109-.35,8.51-2.6,11.978A188.083,188.083,0,0,1,587.05,219.6c2.565-19.023,5.1-38.142,4.758-57.333a24.609,24.609,0,0,1,.481-6.907,21.293,21.293,0,0,1,2.594-5.377c2.82-4.583,5.923-8.983,9.02-13.377,1.982-2.812,4.124-5.763,7.286-7.082s6.907-.729,10.353-.1l12.43,2.273C636.558,132.17,641.7,131.266,642.809,134.276Z" transform="translate(-259.812 -64.49)" fill="#00bfa6"/>
      <path id="Path_30" data-name="Path 30" d="M524.587,226.849a38.879,38.879,0,0,0-5.537-4.6c2.586-3.147,2.076-7.7,2.71-11.73a38.686,38.686,0,0,1,2.353-7.628c.262-.692.634-1.457,1.355-1.639a2.382,2.382,0,0,1,1.3.2c2.186.772,6.747.729,8.444,2.142,2.047,1.719.175,5.319-.6,7.468C534.066,212.51,525.673,227.941,524.587,226.849Z" transform="translate(-241.356 -84.167)" fill="#be6f72"/>
      <path id="Path_31" data-name="Path 31" d="M520.574,412.058a15.1,15.1,0,0,1,2.106,5.829,5.785,5.785,0,0,1-2.346,5.428c-1.763,1.093-4.291.729-6.39.073A33.253,33.253,0,0,1,493.8,405.173a9.014,9.014,0,0,0-5.29-6.266c-2.863-1.617-5.625-3.745-6.951-6.761s-.729-7.045,2.018-8.838a7.446,7.446,0,0,1,5.712-.729,22.091,22.091,0,0,1,5.406,2.353c2.827,1.537,6.28,2.863,8.743,4.911a56.349,56.349,0,0,1,6.011,6.353,89.346,89.346,0,0,1,6,7.65C516.042,404.626,521.077,411.351,520.574,412.058Z" transform="translate(-230.996 -133.313)" fill="#65617d"/>
      <path id="Path_32" data-name="Path 32" d="M454.595,394.3a50.465,50.465,0,0,1-1.931,10.82c-.59,1.982-1.37,4.044-3.009,5.3a11.01,11.01,0,0,1-4.6,1.683,3.3,3.3,0,0,1-4.095-1.792c-2.434-3.22-4.8-6.623-5.829-10.528-1.457-5.661,0-11.73,2.528-17.02a17.419,17.419,0,0,1,3.9-5.676,14.929,14.929,0,0,1,7.155-3.213c2.689-.539,5.989-1.69,6.186,1.581a152.011,152.011,0,0,1-.306,18.841Z" transform="translate(-218.423 -130.851)" fill="#65617d"/>
      <path id="Path_33" data-name="Path 33" d="M487.581,214.19c5.027,2.6,10.608,5.909,11.657,11.468.648,3.4-.6,6.871-.393,10.324.182,3.038,1.457,5.974,1.3,9.005a42.426,42.426,0,0,1-.729,4.262c-.43,2.689-.175,5.428-.284,8.146-.24,6.12-2.288,12.007-3.279,18.047a52.869,52.869,0,0,0-.488,13.049c.241,2.812.729,5.61.729,8.437a36.962,36.962,0,0,1-.5,6.078,60.618,60.618,0,0,1-5.829,18.119c-3.5,6.9-3.009,15.8-2.637,23.533a5.828,5.828,0,0,1-.393,3.147c-.918,1.668-3.206,1.909-5.1,1.749a27.686,27.686,0,0,1-18.215-9.224,4.67,4.67,0,0,1-1.326-2.455c-.16-1.559,1.093-2.841,2-4.131,3.075-4.372,2.3-10.295,2.659-15.665a34.244,34.244,0,0,1,2.761-11.33c.9-2.076,2.033-4.124,2.237-6.382a16.119,16.119,0,0,0-1.086-6.2l-2.186-6.936c-3.388-10.776-6.8-21.617-11.927-31.679a15.847,15.847,0,0,0-6.739,9.472c-1.909,6.863.809,14.528-1.792,21.129a19.32,19.32,0,0,0-1.071,2.834,11.4,11.4,0,0,0-.175,2.543,207.053,207.053,0,0,0,1.3,21.253,6.557,6.557,0,0,0,.874,3.038c.43.619,1.056,1.078,1.515,1.668,1.275,1.654,1.035,3.971.729,6.033l-1.457,9.749a2.645,2.645,0,0,1-.474,1.377,2.608,2.608,0,0,1-1.239.67,34.536,34.536,0,0,1-14.324,1.311,9.5,9.5,0,0,1-3.9-1.923c-.124-1.457,1.69-2.426,1.756-3.876a3.344,3.344,0,0,0-1.115-2.229c-2.71-3.06-5.945-6.31-5.916-10.4,0-1.071.255-2.142.219-3.213-.095-2.747-1.989-5.1-2.652-7.745-.816-3.271.27-6.667.685-10.011.568-4.5-.1-9.064-.729-13.559l-2.441-16.5a44.183,44.183,0,0,0-1.516-7.563,59.209,59.209,0,0,0-3.228-7.1c-2.331-4.736-4.248-9.661-6.157-14.572a13.282,13.282,0,0,1-1.129-4.219,10.278,10.278,0,0,1,2.783-6.783,21.209,21.209,0,0,1,11.657-7.067,5.1,5.1,0,0,1,2.339-.095,6.28,6.28,0,0,1,1.814.954,43.584,43.584,0,0,0,38.521,4.568,3.176,3.176,0,0,0,2.914-.08c2.339-1.071,4.248-2.856,6.3-4.372A37.527,37.527,0,0,1,487.581,214.19Z" transform="translate(-211.097 -87.684)" fill="#3f3d56"/>
      <path id="Path_34" data-name="Path 34" d="M310.016,467.238a9.967,9.967,0,0,0,1.719,3.067c2.637,3.439,6.317,6.186,8.014,10.2.357.86.619,1.763.947,2.638a17.348,17.348,0,0,0,4.736,6.863,29.148,29.148,0,0,0,5.224,3.461c3.22,1.756,6.7,3.344,10.361,3.25a11.267,11.267,0,0,0,2.186-.262,11.826,11.826,0,0,0,3.257-1.195c2.353-1.3,4.372-3.832,3.905-6.477a5.923,5.923,0,0,0-.474-1.457,15.3,15.3,0,0,0-1.333-2.106,15.813,15.813,0,0,0-4.3-4.546c-2.026-1.239-4.576-1.545-6.4-3.075a10.055,10.055,0,0,1-1.843-2.229,28.109,28.109,0,0,1-3.643-8.255c-.554-2.186-.925-4.583-2.521-6.186s-3.789-1.967-5.916-2.332a10.28,10.28,0,0,0-2.186-.211c-1.042.036-2.12.335-3.1-.153s-1.3-1.18-2.484-1.086a5.1,5.1,0,0,0-2.557,1.115C310.847,460.309,309.011,463.952,310.016,467.238Z" transform="translate(-184.546 -153.622)" fill="#3f3d56"/>
      <path id="Path_35" data-name="Path 35" d="M337.918,471.908c.474,2.47,1.2,5.1,3.111,6.71,1.217,1.049,2.914,1.7,3.519,3.184s-.175,3.337-1.18,4.692a17.282,17.282,0,0,1-4.692,4.306,7.015,7.015,0,0,1-5.158,1.26,8.613,8.613,0,0,1-3.694-2.4c-2.492-2.31-5.042-4.707-6.441-7.8-1.457-3.264-1.53-7.045-3.118-10.259-.925-1.872-2.353-3.512-2.914-5.523a3.432,3.432,0,0,1,0-2.244,3.162,3.162,0,0,1,2.856-1.7,9.94,9.94,0,0,1,3.417.729,75.252,75.252,0,0,0,10.076,2.82c1.362.255,2.186.248,2.914,1.567a15.708,15.708,0,0,1,1.3,4.663Z" transform="translate(-186.561 -154.977)" fill="#fbbebe"/>
      <path id="Path_36" data-name="Path 36" d="M356.772,502.653a8.014,8.014,0,0,0-1.129,2.71,6.056,6.056,0,0,0-.08,2.288,11.825,11.825,0,0,0,3.257-1.195c2.353-1.3,4.372-3.832,3.905-6.477a5.924,5.924,0,0,0-.474-1.457,2.033,2.033,0,0,0-1.938.6A16.093,16.093,0,0,0,356.772,502.653Z" transform="translate(-196.964 -164.841)" fill="#fbbebe"/>
      <path id="Path_37" data-name="Path 37" d="M321.286,426.509a3.585,3.585,0,0,0-.27,2.186c.335,1.457,1.829,2.3,3.177,2.958l12.816,6.266A26.844,26.844,0,0,1,339.6,439.3a38.2,38.2,0,0,1,5.77,4.969,15.138,15.138,0,0,0,6.412,3.971,10.834,10.834,0,0,0,7.286-.954,15.056,15.056,0,0,0,3.337-2.266,20.517,20.517,0,0,0,2.4-2.5,5.392,5.392,0,0,0,1.3-2.353,5.166,5.166,0,0,0-1.195-3.745,17.292,17.292,0,0,0-1.457-1.807c-4.86-5.37-12.823-8.153-19.672-9.246a56.01,56.01,0,0,1-7.934-2.288,18.579,18.579,0,0,0-8.124-1.071A8.043,8.043,0,0,0,321.286,426.509Z" transform="translate(-187.59 -144.056)" fill="#3f3d56"/>
      <path id="Path_38" data-name="Path 38" d="M321.286,426.509a3.585,3.585,0,0,0-.27,2.186c.335,1.457,1.829,2.3,3.177,2.958l12.816,6.266A26.844,26.844,0,0,1,339.6,439.3a38.2,38.2,0,0,1,5.77,4.969,15.138,15.138,0,0,0,6.412,3.971,10.834,10.834,0,0,0,7.286-.954,15.056,15.056,0,0,0,3.337-2.266,20.517,20.517,0,0,0,2.4-2.5,5.392,5.392,0,0,0,1.3-2.353,5.166,5.166,0,0,0-1.195-3.745,17.292,17.292,0,0,0-1.457-1.807c-4.86-5.37-12.823-8.153-19.672-9.246a56.01,56.01,0,0,1-7.934-2.288,18.579,18.579,0,0,0-8.124-1.071A8.043,8.043,0,0,0,321.286,426.509Z" transform="translate(-187.59 -144.056)" opacity="0.1"/>
      <path id="Path_39" data-name="Path 39" d="M361.725,432.911a14.574,14.574,0,0,1,2.4,3.708,4.153,4.153,0,0,1,.547,2.965,4.328,4.328,0,0,1-1.333,1.749l-1.275,1.18a5.1,5.1,0,0,1-1.326.991,5.3,5.3,0,0,1-2.186.328c-1.712,0-3.555,0-4.947-1.027-1.9-1.37-2.244-4.2-1.377-6.382a13.773,13.773,0,0,1,4.51-5.3C358.228,429.924,360.684,431.811,361.725,432.911Z" transform="translate(-195.957 -146.458)" fill="#fbbebe"/>
      <path id="Path_40" data-name="Path 40" d="M376.065,442.773a6.477,6.477,0,0,0,.328,3.607c.321,1.093.634,2.186.947,3.3v.044a20.519,20.519,0,0,0,2.4-2.5,5.391,5.391,0,0,0,1.3-2.353,5.166,5.166,0,0,0-1.195-3.745,17.287,17.287,0,0,0-1.457-1.807c-.342.444-.641.882-.889,1.166A6.435,6.435,0,0,0,376.065,442.773Z" transform="translate(-202.516 -148.786)" fill="#fbbebe"/>
      <path id="Path_41" data-name="Path 41" d="M329.652,351.94c-1.508,6.339-.867,12.969-.066,19.439.612,4.925,1.3,10.025-.16,14.768-.539,1.77-1.392,3.57-1.064,5.4.619,3.446,4.772,4.772,8.211,5.421a8.094,8.094,0,0,0,3.038.182,7.213,7.213,0,0,0,2.769-1.457A30.266,30.266,0,0,0,353.04,381.52a52.425,52.425,0,0,0,2.12-11.847c.67-6.732,1.348-13.544.364-20.233-.291-1.967-.729-3.913-.911-5.894a42.594,42.594,0,0,1,.568-10.31,166.309,166.309,0,0,1,5.683-24.874A33.515,33.515,0,0,1,340.7,304.72c1.195.641-.175,10.863-.321,12.3a83.482,83.482,0,0,1-2.31,12.677C336.035,337.47,331.5,344.217,329.652,351.94Z" transform="translate(-189.581 -112.254)" fill="#3f3d56"/>
      <path id="Path_42" data-name="Path 42" d="M329.652,351.94c-1.508,6.339-.867,12.969-.066,19.439.612,4.925,1.3,10.025-.16,14.768-.539,1.77-1.392,3.57-1.064,5.4.619,3.446,4.772,4.772,8.211,5.421a8.094,8.094,0,0,0,3.038.182,7.213,7.213,0,0,0,2.769-1.457A30.266,30.266,0,0,0,353.04,381.52a52.425,52.425,0,0,0,2.12-11.847c.67-6.732,1.348-13.544.364-20.233-.291-1.967-.729-3.913-.911-5.894a42.594,42.594,0,0,1,.568-10.31,166.309,166.309,0,0,1,5.683-24.874A33.515,33.515,0,0,1,340.7,304.72c1.195.641-.175,10.863-.321,12.3a83.482,83.482,0,0,1-2.31,12.677C336.035,337.47,331.5,344.217,329.652,351.94Z" transform="translate(-189.581 -112.254)" opacity="0.1"/>
      <path id="Path_43" data-name="Path 43" d="M364.806,311.331c2.914,8.444,2.273,17.668,1.013,26.513s-3.118,17.69-2.572,26.6c.211,3.5.78,7.089-.24,10.433a22.8,22.8,0,0,1-2.237,4.656l-23.249,40.2a7.227,7.227,0,0,1-5.829,3.643,16.88,16.88,0,0,1-7.242-1.552,13.028,13.028,0,0,1-4.219-2.339,4.991,4.991,0,0,1-1.778-4.269c1.042-6.98,2.608-14.127,3.767-21.129a36.576,36.576,0,0,1,5.056-13.384c1.8-2.914,4.014-5.53,5.566-8.561,4.459-8.685,2.914-19.278-.525-28.415s-8.561-17.617-11.293-26.958a30.911,30.911,0,0,1-1.377-8.014,21.37,21.37,0,0,1,6.091-15.2,5.341,5.341,0,0,1,2.106-1.457,5.9,5.9,0,0,1,2.871.051C343.662,294.668,360.529,298.857,364.806,311.331Z" transform="translate(-186.906 -108.789)" fill="#3f3d56"/>
      <path id="Path_44" data-name="Path 44" d="M650.384,141.828c.423,3.191-.729,6.419-2.368,9.18-6.2,10.346-20.5,14.921-31.548,10.105-4.554-1.989-8.408-5.268-12.182-8.5a10.845,10.845,0,0,1-3.228-3.781c-1.129-2.732.233-5.989,2.455-7.942s5.1-2.914,7.963-3.781C620.928,134.163,648.133,124.881,650.384,141.828Z" transform="translate(-263.504 -65.353)" fill="#fbbebe"/>
      <path id="Path_45" data-name="Path 45" d="M653.672,131.594c8.6,6.922,21.129,13.515,30.878,18.645,3.315,1.749,6.994,3.716,8.189,7.286a14.185,14.185,0,0,1,.219,6c-.408,3.869-.831,7.8-2.324,11.388-1.756,4.2-4.86,7.672-7.352,11.49-4.372,6.688-6.936,14.572-12.335,20.481,3.643,12.1,7.628,24.189,8.925,36.75a1.691,1.691,0,0,1-.109,1.027,1.762,1.762,0,0,1-.568.517l-9.064,5.945a10.2,10.2,0,0,0-2.616,2.186c-1.6,2.084-1.392,5.013-2.383,7.439a9.668,9.668,0,0,1-5.61,5.1,17.274,17.274,0,0,1-7.716.816,17.938,17.938,0,0,1-9.209-3.242,25.476,25.476,0,0,1-5.545-6.623,25.786,25.786,0,0,1-2.914-5.311,23.918,23.918,0,0,1-.991-8.459,89.428,89.428,0,0,1,1.552-16.2c.423-2.12.947-4.211,1.282-6.346.67-4.3.539-8.685,1.035-13.005a87.476,87.476,0,0,1,3.242-14.331,73.9,73.9,0,0,0,1.894-8.816,96.673,96.673,0,0,1,4.248-15.3l2.914-8.6c.619-1.858,1.246-3.709,1.982-5.523,1.37-3.388,3.133-6.688,3.6-10.3.517-3.942-3.738-8.619-2.3-12.32C652.71,131.871,653.344,131.332,653.672,131.594Z" transform="translate(-272.321 -65.247)" fill="#3f3d56"/>
      <path id="Path_46" data-name="Path 46" d="M692.489,164.42c2.018.911,3.133,3.082,3.854,5.18a29.362,29.362,0,0,1,1.136,14.717,26.343,26.343,0,0,0-.583,3.76,25.065,25.065,0,0,0,.43,4.372c.729,5.574,0,11.235.24,16.86.248,6.324,1.625,13.005-1.027,18.754-1.763,3.818-5.1,6.659-8.393,9.239a167.954,167.954,0,0,1-40.2,23.2c2.484-2.987,2.528-7.483.874-11s-4.729-6.164-8.014-8.218a51.642,51.642,0,0,0,12.058-4.306c7.636-3.876,14.178-9.552,20.641-15.169a6.281,6.281,0,0,0,2.142-2.71c.656-2.186-1.151-4.262-2.4-6.178-3.8-5.829-2.914-13.442-1.326-20.189,1.77-7.4,4.372-14.761,9.115-20.706A20.48,20.48,0,0,1,692.489,164.42Z" transform="translate(-274.403 -74.175)" fill="#3f3d56"/>
      <path id="Path_47" data-name="Path 47" d="M640.455,289.817a9.961,9.961,0,0,1-2.506,2.754c-2.186,1.457-5.188.9-7.628-.131a22.259,22.259,0,0,1-6.193-3.942,9.705,9.705,0,0,0-2.747-2.04c-1.909-.729-4.576-.182-5.647-1.938a1.027,1.027,0,0,1-.175-.627c.066-.634.9-.809,1.537-.845a19.082,19.082,0,0,0,8.43-2.6,8.093,8.093,0,0,1-2.069-2.186,1.705,1.705,0,0,1-.35-1.035,1.85,1.85,0,0,1,.634-1.035,16.218,16.218,0,0,1,17.836-2.973,3.555,3.555,0,0,1,1.457,1.093,4.044,4.044,0,0,1,.532,1.457c.474,2.04,2.186,5.1,1.567,7.162C644.448,285.3,641.862,287.813,640.455,289.817Z" transform="translate(-267.549 -103.311)" fill="#fbbebe"/>
      <path id="Path_48" data-name="Path 48" d="M578.448,239.082c9.064-10.47,13.115-24.247,16.874-37.573l2.688-9.472,6.484-22.812c.954-3.366,1.909-6.732,2.543-10.164a94.058,94.058,0,0,0,1.122-18,19.476,19.476,0,0,0-1.683-7.228c-.634-1.574-.94-3.25-1.457-4.874a24.321,24.321,0,0,0-2.922-6.4,6.7,6.7,0,0,0-1.319-1.574,7.665,7.665,0,0,0-2.98-1.209,26.229,26.229,0,0,0-7.133-1.086,8.841,8.841,0,0,0-6.47,2.761c-1.188,1.406-1.734,3.228-2.674,4.809a18.751,18.751,0,0,0-1.188,2.018,10.2,10.2,0,0,0-.656,3.308q-.568,6.885-.969,13.785c-.124,2.091-.233,4.2-.153,6.3.066,1.632.24,3.257.415,4.882L580.7,172.46c.4,3.738.117,7.235.452,10.98.816,9.042-1.129,18.084-3.126,26.958-.954,4.218-1.938,8.5-3.978,12.313-1.8,3.381-4.5,6.812-3.781,10.579a36.76,36.76,0,0,1,1.013,3.862,7.752,7.752,0,0,0,.24,2.441,2.914,2.914,0,0,0,3.111,1.457A7.22,7.22,0,0,0,578.448,239.082Z" transform="translate(-255.225 -61.764)" fill="#3f3d56"/>
      <path id="Path_49" data-name="Path 49" d="M577.468,222.608c.277,2.091.066,4.211.168,6.317a42.6,42.6,0,0,0,1.457,8.014c.729,2.914,1.661,6.178,4.233,7.8a13.3,13.3,0,0,1,1.843,1.158,1.792,1.792,0,0,1,.6,1.953l-2-.335a2.033,2.033,0,1,1-2.8,2.914,4.742,4.742,0,0,1-.182,1.953,1.588,1.588,0,0,1-1.457,1.093,2.347,2.347,0,0,1-1.042-.437l-5.231-3.242a9.654,9.654,0,0,1-3.767-3.643L567,242.7a8.234,8.234,0,0,1-1.187-2.186c-.852-2.914,1.53-6.149.291-8.9a11.959,11.959,0,0,0-1.3-1.909c-2.645-3.643-2.477-8.6-2.186-13.115.095-1.523.372-3.33,1.749-3.993a3.592,3.592,0,0,1,3.417.6,14.513,14.513,0,0,0,3.06,1.931c.729.248,1.53.277,2.259.539,1.02.357,1.967,1.749,2.652,2.572A8.532,8.532,0,0,1,577.468,222.608Z" transform="translate(-253.137 -87.191)" fill="#fbbebe"/>
      <path id="Path_50" data-name="Path 50" d="M487.239,121.487a12.953,12.953,0,0,1-2.565,3.832,4.962,4.962,0,0,1-4.226,1.457c-1.618-.321-2.805-1.654-3.876-2.914-2.8-3.286-5.632-6.616-7.512-10.506-2.871-5.923-3.33-12.685-3.745-19.249a9.134,9.134,0,0,1,.619-4.962c1.027-1.887,3.206-2.776,5.217-3.526l11.111-4.153a4.306,4.306,0,0,1,2.186-.4c1.741.291,2.382,2.39,2.856,4.087a25.5,25.5,0,0,0,4.153,8.452c2.492,3.322,8.08,7.8,4.889,11.942C492.492,110.514,490.044,115.877,487.239,121.487Z" transform="translate(-226.754 -51.548)" fill="#be6f72"/>
      <path id="Path_51" data-name="Path 51" d="M490.661,103.781c4.867,4.576,6.514,11.7,6.28,18.368s-2.084,13.166-3.14,19.752-1.268,13.617,1.6,19.672c.984,2.076,2.324,4,3.009,6.193a19.434,19.434,0,0,1,.576,6.652,19,19,0,0,1-1.326,6.878c-1.552,3.439-4.743,5.829-7.8,8.014-6.229,4.5-12.583,9.078-19.9,11.432a60.963,60.963,0,0,1-15.388,2.4,48.947,48.947,0,0,1-10.535-.3,28.612,28.612,0,0,1-15.993-8.466,8.961,8.961,0,0,1-1.814-2.5,10.384,10.384,0,0,1-.634-3.789q-.262-7.177.087-14.353a63.1,63.1,0,0,1,1.872-13.515c1.392-5.1,3.8-9.88,5.632-14.849,6.368-17.275,5.727-36.932,14.572-53.063,1.909-3.483,5.1-7.147,9.035-6.594a3.031,3.031,0,0,1,2,.918,4.2,4.2,0,0,1,.729,2.244c.94,7.84,2.273,15.883,5.967,22.958,1.457,2.776,3.643,7,7,7.745s5.341-2.463,7.14-4.736a58.148,58.148,0,0,1,11.031-11.067Z" transform="translate(-215.961 -52.8)" fill="#e3e8f4"/>
      <path id="Path_52" data-name="Path 52" d="M535.846,92.626a14.522,14.522,0,0,1,2.761,1.938c2.186,2.069,2.987,5.239,2.973,8.24a64.061,64.061,0,0,1-1.166,8.932c-1.173,8.014-.175,16.218.292,24.335a11.78,11.78,0,0,1-.233,3.92c-.357,1.224-1.093,2.3-1.566,3.49-1.392,3.512-.342,7.519-1.158,11.206-.874,3.927-3.869,7.5-3.308,11.483.226,1.559.976,2.994,1.3,4.539s.044,3.41-1.29,4.24-3.271.226-4.86.685a14.972,14.972,0,0,0-1.88.845,9.235,9.235,0,0,1-7.8-.481,23.649,23.649,0,0,1-6.3-5c-2.776-2.841-5.464-5.953-6.681-9.734-1.778-5.479-.2-11.446,1.734-16.881s4.233-10.929,3.891-16.707c-.189-3.235-1.209-6.346-1.821-9.523a60.911,60.911,0,0,1-.809-13.333c.095-3.264.313-6.63,1.719-9.581a13.2,13.2,0,0,1,10.433-7.14C527.169,87.548,531.54,90.149,535.846,92.626Z" transform="translate(-237.854 -53.441)" fill="#3f3d56"/>
      <path id="Path_53" data-name="Path 53" d="M527.968,177.91a22.214,22.214,0,0,0,1.239,6.841c1.3-2.973,1.457-6.31,1.632-9.545.729-11.14,3.2-21.646,5.829-32.437-1.916,1.457-2.995,5.1-3.913,7.286a64.247,64.247,0,0,0-4.787,27.854Z" transform="translate(-243.753 -68.299)" opacity="0.1"/>
      <path id="Path_54" data-name="Path 54" d="M438.307,84.294c-3.512.925-6.557,3.009-9.96,4.372-3.534,1.457-7.337,2.076-11.045,2.973-8.583,2.084-17.2,5.953-22.382,13.115-3.818,5.268-5.4,11.774-8.014,17.741-2.186,5.005-5.1,9.7-6.71,14.907-2.106,6.8-1.865,14.084-1.348,21.18.423,5.829,1.064,11.723,3.708,16.889,1.384,2.71,3.293,5.137,4.678,7.847,1.661,3.257,2.535,6.849,3.92,10.2s3.417,6.7,6.63,8.452l5.319-3.111c7.934-4.641,15.869-9.289,23.555-14.331,6.7-4.372,13.464-9.392,17.034-16.575,3.162-6.346,3.475-13.763,2.659-20.808s-2.681-13.938-3.643-20.961a84.414,84.414,0,0,1,.546-26.6c.729-3.964,2.667-8.058,3.067-12.007C446.766,83.354,441.346,83.493,438.307,84.294Z" transform="translate(-203.207 -52.308)" fill="#3f3d56"/>
      <path id="Path_55" data-name="Path 55" d="M410.034,240.044c4.073,3.854,9.931,4.976,15.023,7.286a32.254,32.254,0,0,1,10.033,7.286c1.566,1.719,3.082,4.058,2.3,6.244-.663,1.88-2.7,2.841-4.561,3.541-2.317.874-4.9,1.647-7.213.765a25.905,25.905,0,0,1-3.694-2.288c-3.053-1.814-6.9-1.821-10.033-3.5-4.415-2.361-6.616-7.555-10.769-10.36-2.273-1.53-5.413-2.783-5.647-5.515a6.667,6.667,0,0,1,.612-2.863c.838-2.229,2.266-9.887,5.457-9.683C405.014,231.184,407.448,238.2,410.034,240.044Z" transform="translate(-207.815 -92.234)" fill="#fbbebe"/>
      <path id="Path_56" data-name="Path 56" d="M371.943,188.895c1.333,4.794,4.43,8.881,7.643,12.685,2.31,2.732,4.845,5.7,4.925,9.282.073,3.381-2.186,6.492-5.1,8.218a21.609,21.609,0,0,1-9.719,2.5,24.517,24.517,0,0,1-8.058-.561c-6.659-1.807-11.279-7.614-16.517-12.1-3.111-2.659-6.608-4.976-8.991-8.306s-3.388-8.109-1.042-11.468A16.6,16.6,0,0,1,338,186.228a48.714,48.714,0,0,0,10.047-12.058c1.078-1.829,2.113-3.811,3.927-4.911,2.6-1.581,5.938-.86,8.882-.087,3.2.838,12.211,2.477,12.838,6.557.255,1.676-1.822,4.284-2.135,6.084a16.116,16.116,0,0,0,.386,7.082Z" transform="translate(-191.063 -75.233)" fill="#fbbebe"/>
      <path id="Path_57" data-name="Path 57" d="M383.645,202.162a30.763,30.763,0,0,1,2.346,5.428c2.222,7.723-1.749,15.679-3.643,23.49-2.419,10-1.392,20.466-1.508,30.761-.051,4.707-.554,9.887-3.942,13.151a12.208,12.208,0,0,0-2.514,2.579,10.673,10.673,0,0,0-.809,2.412,12.43,12.43,0,0,1-18.011,7.417c-2.761-1.537-5.158-4.2-8.321-4.284a24.121,24.121,0,0,0-2.965.328c-3.148.313-6.229-.852-9.18-2a5.988,5.988,0,0,1-1.938-1.035c-.532-.488-.874-1.144-1.362-1.668-1.8-1.938-4.874-1.6-7.468-2.142a10.455,10.455,0,0,1-7.92-7.92,20.437,20.437,0,0,1,.357-7.628l1.953-11.264a103.708,103.708,0,0,0,1.7-12.51,52.457,52.457,0,0,0-1.209-14.142c-.86-3.789-2.142-7.5-2.608-11.359a27.752,27.752,0,0,1,5.1-19.533c1.013-1.392,2.339-2.783,4.058-2.914a6.822,6.822,0,0,1,3.905,1.333q15.759,9.326,31.737,18.266a37.55,37.55,0,0,0,9.144,4.095c.976.248,2.375.146,2.514-.845a1.843,1.843,0,0,0-.284-1.071c-1.821-3.5-4.459-6.514-6.557-9.851s-3.716-7.286-3.1-11.162c.845-5.362,5.829-8.911,9.9-4.707C377.591,190.162,380.651,196.3,383.645,202.162Z" transform="translate(-186.293 -79.364)" fill="#f86d70"/>
      <path id="Path_58" data-name="Path 58" d="M356.741,298.457c8.546.546,17.282,1.129,25.195,4.408,2.543,1.049,5.239,2.4,7.912,1.756a10.579,10.579,0,0,0,3.643-1.953,83.344,83.344,0,0,0,9.311-7.942c-.291-1.6-2.455-1.814-4.073-1.8a24.342,24.342,0,0,1-11.337-2.725,19.1,19.1,0,0,0-3.643-1.7c-3.461-.954-6.987.867-10.462,1.756-5.144,1.311-10.565.546-15.818-.226l-14.178-2.091c-1.319-.189-2.805-.342-3.854.474a4.706,4.706,0,0,0-1.377,2.47c-1.734,5.829-.9,6.317,4.867,6.681Z" transform="translate(-192.015 -107.66)" fill="#fbbebe"/>
      <circle id="Ellipse_12" data-name="Ellipse 12" cx="23.315" cy="23.315" r="23.315" transform="translate(335.012 43.01)" opacity="0.1"/>
      <circle id="Ellipse_13" data-name="Ellipse 13" cx="23.315" cy="23.315" r="23.315" transform="translate(334.845 41.998)" fill="#fbbebe"/>
      <path id="Path_59" data-name="Path 59" d="M640.318,87.117c1.865,1.151,3.818,2.39,4.838,4.328a21.671,21.671,0,0,1,1.246,4.08c1.275,4.372,4.67,8.167,4.874,12.721.226,4.991-3.519,9.326-7.759,11.942a5.756,5.756,0,0,1-3.337,1.122,10.729,10.729,0,0,1-3.424-1.348c-4.787-2.127-10.142.568-15.213,1.807a27.308,27.308,0,0,1-15.883-.933,15.029,15.029,0,0,1-7.1-4.918c-1.712-2.368-2.324-5.683-.867-8.226.729-1.3,1.938-2.47,1.858-3.949a20.425,20.425,0,0,0-.729-2.565,5.9,5.9,0,0,1,1.239-3.934,56.946,56.946,0,0,1,12.6-14.258,9.017,9.017,0,0,1,5.049-2.448c3.832-.168,7.126,2.688,11.067,2.7C633.258,83.255,636.471,84.741,640.318,87.117Z" transform="translate(-262.479 -51.407)" fill="#3f3d56"/>
      <circle id="Ellipse_14" data-name="Ellipse 14" cx="24.043" cy="24.043" r="24.043" transform="translate(248.288 12.3)" opacity="0.1"/>
      <circle id="Ellipse_15" data-name="Ellipse 15" cx="24.043" cy="24.043" r="24.043" transform="translate(248.711 11.71)" fill="#be6f72"/>
      <path id="Path_60" data-name="Path 60" d="M514.231,89.894c3.4,1.9,7.585,1.7,11.373.838a15.3,15.3,0,0,0,5.974-2.521,7.206,7.206,0,0,0,3.009-5.537c0-2.441-1.6-4.641-1.8-7.082-.24-3.075,1.763-5.916,1.974-9.005s-1.311-5.872-2.8-8.524c-2.557-4.554-5.217-9.166-9.107-12.648s-9.282-5.7-14.382-4.532c-2.506.576-4.831,1.923-7.388,2.186-2.273.211-4.517-.474-6.783-.765s-4.809-.109-6.433,1.457c-.889.874-1.457,2.106-2.5,2.747a14.993,14.993,0,0,1-2.186.809c-2.63,1.056-3.832,4.022-4.765,6.688L472.17,71.92c2.091,1.457,4.612,2.12,6.9,3.242s4.51,2.914,4.976,5.421c.357,1.9-.321,4.087.787,5.676,1.013,1.457,3.075,1.7,4.823,1.457s3.5-.852,5.253-.583c4.372.663,6,3.344,10.04,0S510.472,87.782,514.231,89.894Z" transform="translate(-228.632 -40.56)" fill="#3f3d56"/>
      <circle id="Ellipse_16" data-name="Ellipse 16" cx="21.858" cy="21.858" r="21.858" transform="translate(148.719 68.117)" opacity="0.1"/>
      <circle id="Ellipse_17" data-name="Ellipse 17" cx="21.858" cy="21.858" r="21.858" transform="translate(149.565 66.93)" fill="#fbbebe"/>
      <path id="Path_61" data-name="Path 61" d="M372.129,129.124a57.646,57.646,0,0,0-17.289-9.093c-3.993-1.3-8.335-2.186-12.386-.991-5.494,1.566-12.845,3.905-16.248,8.5a24.355,24.355,0,0,0-4.182,7.286c-1.617,5.435.685,11.228.532,16.9-.182,6.608-3.687,12.641-7.512,18.033s-4.6,13.115-6.856,19.337c-.772,2.135-1.02,5.1.969,6.171,1.749.969,3.862-.24,5.479-1.406l9.727-7.031a7.411,7.411,0,0,1,2.565-1.37c2-.466,3.964.787,5.639,1.974l20.4,14.426a6.259,6.259,0,0,0,.095-5.3c1.916.59,3.308,2.186,4.991,3.322s4.24,1.508,5.464-.08.3-3.723-1.064-5.005-3.155-2.047-4.488-3.366c-2.645-2.63-2.914-6.783-4.583-10.106-1.195-2.331-3.126-4.284-3.971-6.769-1.377-4.058.423-8.43,2.186-12.335,2.106-4.634,4.488-9.581,8.969-12,1.508-.816,3.177-1.3,4.721-2.04,3.847-1.843,8.648-6.193,10.528-10.091C377.462,134.625,374.927,131.281,372.129,129.124Z" transform="translate(-183.971 -61.706)" fill="#3f3d56"/>
      <path id="Path_62" data-name="Path 62" d="M338.124,231.964c2.091,1.333,4.452,2.186,6.506,3.577s3.854,3.5,3.913,5.982c.058,2.368-1.457,4.444-2.914,6.324L327.88,271.14l9.049,2.4c-1.457,2.011-1.829,4.576-2.587,6.936s-2.186,4.816-4.6,5.435c-2.186.561-4.474-.59-6.732-.459-1.669.1-3.242.889-4.911.954-2.149.08-4.146-1.049-5.938-2.244-3.993-2.674-7.956-6.506-7.927-11.315a17.114,17.114,0,0,1,.969-4.765c2.616-8.532,5.326-17.268,10.747-24.364a76.488,76.488,0,0,1,10.04-10.164,9.363,9.363,0,0,1,2.812-1.945c2.332-.874,4.874.2,7.286.9s5.45.8,6.841-1.26" transform="translate(-183.051 -92.314)" opacity="0.1"/>
      <path id="Path_63" data-name="Path 63" d="M337.077,229.975c2.091,1.326,4.452,2.186,6.506,3.577s3.854,3.5,3.92,5.974-1.457,4.452-2.914,6.331l-17.756,23.271,9.049,2.4c-1.457,2.011-1.829,4.568-2.586,6.936s-2.186,4.816-4.6,5.435c-2.186.561-4.474-.59-6.732-.459-1.668.095-3.242.889-4.911.947-2.149.08-4.146-1.049-5.938-2.244-3.993-2.667-7.956-6.506-7.92-11.308a16.759,16.759,0,0,1,.962-4.765c2.616-8.539,5.326-17.275,10.747-24.364a78.565,78.565,0,0,1,10.04-10.2,9.632,9.632,0,0,1,2.812-1.945c2.331-.874,4.874.2,7.286.911s5.45.8,6.841-1.26" transform="translate(-182.769 -91.76)" fill="#f86d70"/>
      <g id="Group_1" data-name="Group 1" transform="translate(334.398 46.078)" opacity="0.1">
        <path id="Path_64" data-name="Path 64" d="M599.32,121.137a15.014,15.014,0,0,0,7.1,4.918,27.183,27.183,0,0,0,15.883.933c5.1-1.239,10.426-3.934,15.213-1.807a10.709,10.709,0,0,0,3.417,1.355,5.829,5.829,0,0,0,3.344-1.129,17.239,17.239,0,0,0,6.958-7.6,1.875,1.875,0,0,0,.044.488c.226,4.991-3.519,9.326-7.76,11.942a5.756,5.756,0,0,1-3.337,1.122,10.73,10.73,0,0,1-3.424-1.348c-4.787-2.127-10.142.568-15.213,1.807a27.307,27.307,0,0,1-15.883-.933,15.029,15.029,0,0,1-7.1-4.918c-1.712-2.368-2.324-5.683-.867-8.226l.109-.182a8.913,8.913,0,0,0,1.515,3.577Z" transform="translate(-596.877 -107.535)"/>
        <path id="Path_65" data-name="Path 65" d="M600.992,105.228a5.112,5.112,0,0,1-1.268,3.016,4.609,4.609,0,0,1-.211-.729,5.62,5.62,0,0,1,1.1-3.716,4.843,4.843,0,0,1,.379,1.428Z" transform="translate(-597.581 -103.8)"/>
      </g>
      <path id="Path_66" data-name="Path 66" d="M480.121,54.578l-6.251,17.909c2.091,1.457,4.612,2.127,6.9,3.242s4.51,2.914,4.976,5.421c.357,1.9-.321,4.087.787,5.683,1.013,1.457,3.075,1.7,4.823,1.457s3.5-.852,5.253-.583c4.372.663,6,3.344,10.04.036s5.508.619,9.268,2.732c3.4,1.909,7.585,1.712,11.373.838a15.3,15.3,0,0,0,5.974-2.514,9.3,9.3,0,0,0,.729-.663,8.117,8.117,0,0,1-2.448,3.031,15.3,15.3,0,0,1-5.975,2.521c-3.789.867-8.014,1.064-11.373-.838-3.76-2.113-5.3-5.967-9.268-2.732s-5.683.627-10.04,0c-1.749-.27-3.5.335-5.253.583s-3.811,0-4.823-1.457c-1.107-1.588-.43-3.774-.787-5.676-.466-2.506-2.688-4.306-4.976-5.421s-4.809-1.792-6.9-3.242l6.28-17.96c.729-1.974,1.53-4.109,2.987-5.515a24.466,24.466,0,0,0-1.3,3.147Z" transform="translate(-228.627 -43.509)" opacity="0.1"/>
      <g id="Group_2" data-name="Group 2" transform="translate(123.655 64.759)" opacity="0.1">
        <path id="Path_67" data-name="Path 67" d="M368.521,200.317c1.61.729,3.643.838,4.663-.525,1.144-1.457.3-3.716-1.064-5.005s-3.155-2.047-4.488-3.366c-2.645-2.623-2.914-6.776-4.583-10.1-1.195-2.339-3.126-4.291-3.971-6.776-1.377-4.051.423-8.43,2.186-12.328,2.106-4.634,4.488-9.581,8.969-12,1.508-.816,3.177-1.3,4.721-2.04,3.847-1.843,8.648-6.2,10.528-10.1,1.581-3.286-.648-6.477-3.3-8.641,1.29.838,2.55,1.719,3.774,2.659,2.805,2.186,5.333,5.5,3.643,8.947-1.88,3.9-6.681,8.248-10.528,10.091-1.545.729-3.213,1.224-4.721,2.04-4.481,2.419-6.863,7.366-8.969,12-1.77,3.905-3.57,8.277-2.186,12.335.845,2.484,2.776,4.437,3.971,6.769,1.69,3.322,1.938,7.475,4.583,10.105,1.333,1.319,3.126,2.076,4.488,3.366s2.186,3.519,1.064,5.005-3.789,1.18-5.464.08C370.707,202.073,369.679,201.068,368.521,200.317Z" transform="translate(-321.46 -129.44)"/>
        <path id="Path_68" data-name="Path 68" d="M310.5,214.684l9.727-7.024a7.432,7.432,0,0,1,2.565-1.377c2-.459,3.964.794,5.639,1.982l20.4,14.426a6.273,6.273,0,0,0,.095-5.311c1.872.583,3.235,2.142,4.86,3.235a5.446,5.446,0,0,0-.729-.27,6.258,6.258,0,0,1-.095,5.3l-20.4-14.426c-1.676-1.188-3.643-2.441-5.639-1.974a7.41,7.41,0,0,0-2.565,1.37l-9.727,7.031c-1.617,1.166-3.73,2.375-5.479,1.406a3.2,3.2,0,0,1-1.523-2.812,10.558,10.558,0,0,0,2.871-1.559Z" transform="translate(-307.628 -150.27)"/>
      </g>
      <path id="Path_69" data-name="Path 69" d="M626.454,280.009s-41.748,3.344-50.054-2.572l38.193-5.887Z" transform="translate(-256.921 -103.252)" fill="#e3e8f4"/>
      <path id="Path_70" data-name="Path 70" d="M626.454,280.009s-41.748,3.344-50.054-2.572l38.193-5.887Z" transform="translate(-256.921 -103.252)" opacity="0.1"/>
      <path id="Path_71" data-name="Path 71" d="M624.188,277.512l-11.694-7.4S577.609,280.135,568.05,276l9.727-13.646,34.564,6.739Z" transform="translate(-254.655 -100.755)" fill="#e3e8f4"/>
      <path id="Path_72" data-name="Path 72" d="M567.7,142.458a20.493,20.493,0,0,0-3.067,5.384c-.335,1.027-.5,2.1-.787,3.14a24.131,24.131,0,0,1-3.643,7.22c-3.592,5.224-8.08,10.266-8.983,16.539a27.891,27.891,0,0,0,.656,9.311,25.134,25.134,0,0,0,1.719,5.88c.925,2,2.3,3.752,3.359,5.683a40.363,40.363,0,0,1,2.433,5.887,28.887,28.887,0,0,0,2.98-4.372c1-1.457,2.484-2.769,4.24-2.79,2.026,0,3.694,1.676,5.7,1.938a1.625,1.625,0,0,0,.933-.087c.729-.342.787-1.326.729-2.113-.576-5.5-3.723-10.929-2.237-16.262,1.37-4.933,6.266-8.014,8.838-12.437,1.865-3.213,2.419-7,2.914-10.688a66.225,66.225,0,0,0,.969-13.289c-.138-2.237-1.916-16.371-5.166-14.892-1.129.51-2.113,2.674-2.82,3.643l-2.914,4.131Z" transform="translate(-250.041 -63.857)" fill="#3f3d56"/>
      <path id="Path_73" data-name="Path 73" d="M296.335,232.191,272.9,251.273l-30.156-5.392,20.306-15.942Z" transform="translate(-65.883 -62.407)" fill="#e3e8f4"/>
      <path id="Path_74" data-name="Path 74" d="M297.495,230.561l-23.439,19.082L243.9,244.252l20.306-15.942Z" transform="translate(-66.197 -61.964)" opacity="0.1"/>
      <path id="Path_75" data-name="Path 75" d="M297.262,229.169l-23.439,19.074-30.164-5.384,20.313-15.949Z" transform="translate(-66.132 -61.584)" fill="#e3e8f4"/>
      <path id="Path_76" data-name="Path 76" d="M298.192,226.141l-23.446,19.082-30.156-5.392L264.9,223.89Z" transform="translate(-66.385 -60.765)" opacity="0.1"/>
      <path id="Path_77" data-name="Path 77" d="M297.955,224.751l-23.439,19.082-30.156-5.392L264.666,222.5Z" transform="translate(-66.322 -60.387)" fill="#e3e8f4"/>
      <path id="Path_78" data-name="Path 78" d="M877.1,623.858h0a3.774,3.774,0,0,1,5.413,3.1l1.3,16.91-7.738,1.4L872,633.039Z" transform="translate(-337.151 -198.769)" fill="#3f3d56"/>
      <path id="Path_79" data-name="Path 79" d="M461.663,468.1,343.245,528.193a8.24,8.24,0,0,0,.058,14.71L598.346,670.894a30.957,30.957,0,0,0,29.093-.729l107.423-60.575a8.24,8.24,0,0,0-.488-14.572l-265.432-127a8.24,8.24,0,0,0-7.279.08Z" transform="translate(-192.42 -156.357)" fill="#3f3d56"/>
      <path id="Path_80" data-name="Path 80" d="M342.339,536.56l-3.708,2.754-.291,13.187a5.479,5.479,0,0,0,2.973,5l259.4,133.113a3.862,3.862,0,0,0,5.632-3.432V668.026Z" transform="translate(-192.309 -175.179)" fill="#3f3d56"/>
      <path id="Path_81" data-name="Path 81" d="M461.659,447.118,343.241,507.2a8.24,8.24,0,0,0,.036,14.71L598.342,649.906a30.98,30.98,0,0,0,29.092-.729L734.857,588.6a8.24,8.24,0,0,0-.488-14.572L468.937,447.03a8.24,8.24,0,0,0-7.279.088Z" transform="translate(-192.416 -150.661)" fill="#e3e8f4"/>
      <path id="Path_82" data-name="Path 82" d="M354.576,421.86,224.1,488.11,448.352,600.24l134.556-68.3Z" transform="translate(-60.823 -114.496)" fill="#3f3d56"/>
      <circle id="Ellipse_19" data-name="Ellipse 19" cx="1.275" cy="1.275" r="1.275" transform="translate(217.301 327.24)" fill="#3f3d56"/>
      <line id="Line_9" data-name="Line 9" y1="7.133" x2="15.293" transform="translate(220.361 328.77)" fill="none" stroke="#3f3d56" stroke-miterlimit="10" stroke-width="1"/>
      <rect id="Rectangle_1" data-name="Rectangle 1" width="76.079" height="26.229" rx="13.115" transform="translate(301.309 400.551) rotate(-30)" fill="#00bfa6"/>
      <rect id="Rectangle_2" data-name="Rectangle 2" width="76.079" height="26.229" rx="13.115" transform="translate(339.924 420.225) rotate(-30)" fill="#00bfa6"/>
      <rect id="Rectangle_3" data-name="Rectangle 3" width="76.079" height="26.229" rx="13.115" transform="translate(266.337 377.967) rotate(-30)" fill="#00bfa6"/>
    </g>
  </g>
</svg>
