<svg xmlns="http://www.w3.org/2000/svg" xmlns:xlink="http://www.w3.org/1999/xlink" width="1126" height="811" viewBox="0 0 1126 811"><defs><filter id="a" x="8" y="93" width="545" height="152" filterUnits="userSpaceOnUse"><feOffset dy="3" input="SourceAlpha"/><feGaussianBlur stdDeviation="5" result="b"/><feFlood flood-opacity="0.161"/><feComposite operator="in" in2="b"/><feComposite in="SourceGraphic"/></filter><filter id="c" x="41" y="257" width="545" height="152" filterUnits="userSpaceOnUse"><feOffset dy="3" input="SourceAlpha"/><feGaussianBlur stdDeviation="5" result="d"/><feFlood flood-opacity="0.161"/><feComposite operator="in" in2="d"/><feComposite in="SourceGraphic"/></filter><filter id="e" x="68" y="421" width="545" height="152" filterUnits="userSpaceOnUse"><feOffset dy="3" input="SourceAlpha"/><feGaussianBlur stdDeviation="5" result="f"/><feFlood flood-opacity="0.161"/><feComposite operator="in" in2="f"/><feComposite in="SourceGraphic"/></filter><filter id="g" x="101" y="585" width="545" height="152" filterUnits="userSpaceOnUse"><feOffset dy="3" input="SourceAlpha"/><feGaussianBlur stdDeviation="5" result="h"/><feFlood flood-opacity="0.161"/><feComposite operator="in" in2="h"/><feComposite in="SourceGraphic"/></filter><clipPath id="j"><rect width="1126" height="811"/></clipPath></defs><g id="i" clip-path="url(#j)"><g transform="translate(-20 55)"><rect width="1019" height="811" rx="15" transform="translate(137 -55)" fill="#07b3f2"/><g transform="translate(43 50)"><g transform="matrix(1, 0, 0, 1, -23, -105)" filter="url(#a)"><rect width="515" height="122" rx="8" transform="translate(23 105)" fill="#fff"/></g><g transform="matrix(1, 0, 0, 1, -23, -105)" filter="url(#c)"><rect width="515" height="122" rx="8" transform="translate(56 269)" fill="#fff"/></g><g transform="matrix(1, 0, 0, 1, -23, -105)" filter="url(#e)"><path d="M8,0H507c4.418,0,8,4.162,8,9.3V112.7c0,5.134-3.582,9.3-8,9.3H8c-4.418,0-8-4.162-8-9.3V9.3C0,4.162,3.582,0,8,0Z" transform="translate(83 433)" fill="#fff"/></g><g transform="matrix(1, 0, 0, 1, -23, -105)" filter="url(#g)"><path d="M8,0H507c4.418,0,8,4.162,8,9.3V112.7c0,5.134-3.582,9.3-8,9.3H8c-4.418,0-8-4.162-8-9.3V9.3C0,4.162,3.582,0,8,0Z" transform="translate(116 597)" fill="#fff"/></g></g></g><g transform="translate(18 83)"><path d="M114.9,0A114.9,114.9,0,1,1,0,114.9,114.9,114.9,0,0,1,114.9,0Z" transform="translate(727 204)" fill="#fff"/><text transform="translate(841 309)" fill="#07b3f2" font-size="46" font-family="Poppins-SemiBold, Poppins" font-weight="600"><tspan x="-63.043" y="0">Open</tspan><tspan x="-81.213" y="53">Source</tspan></text><g transform="translate(663 139)" fill="none" stroke="#fff" stroke-width="10"><circle cx="178" cy="178" r="178" stroke="none"/><circle cx="178" cy="178" r="173" fill="none"/></g><path d="M-20.373,8.6,165,0s47.169,14.214,47.169,25.464c0,4.511,72.049,36.143,82.87,65.456,8.9,24.107-26.3,177.168-26.3,177.168l-62.229,81.326L176.761,312.09s39.107-28.625,55.016-80.652c14.326-46.851,6.81-116.132-15.126-141.886-23-27-111.666-65.959-111.666-65.959L0,45Z" transform="matrix(1, -0.017, 0.017, 1, 748.62, 134.443)" fill="#07b3f2"/><circle cx="172.5" cy="172.5" r="172.5" transform="translate(669 145)" fill="none" stroke="#fff" stroke-linecap="round" stroke-width="3" stroke-dasharray="15"/><circle cx="43" cy="43" r="43" transform="translate(676 404)" fill="#8f4098"/><circle cx="43" cy="43" r="43" transform="translate(674 154)" fill="#fcc114"/><circle cx="43" cy="43" r="43" transform="translate(924 154)" fill="#f15a2d"/><circle cx="43" cy="43" r="43" transform="translate(922 404)" fill="#275ecd"/><circle cx="43" cy="43" r="43" transform="translate(799 111)" fill="#d26fff"/><circle cx="43" cy="43" r="43" transform="translate(799 441)" fill="#ff73b6"/><circle cx="43" cy="43" r="43" transform="translate(626 276)" fill="#9ae148"/><circle cx="43" cy="43" r="43" transform="translate(971 276)" fill="#06f4b5"/><path d="M23.289,42.711,18.2,41.233a1,1,0,0,1-.685-1.244L28.909.726A1,1,0,0,1,30.153.041l5.094,1.478a1,1,0,0,1,.685,1.244l-11.4,39.263a1,1,0,0,1-1.244.685ZM13.77,33.342,17.4,29.468a1,1,0,0,0-.067-1.436L9.77,21.376l7.565-6.655a1,1,0,0,0,.067-1.436L13.77,9.41a1,1,0,0,0-1.42-.042L.318,20.641a1,1,0,0,0,0,1.461L12.35,33.384a1,1,0,0,0,1.42-.042Zm27.322.05L53.125,22.111a1,1,0,0,0,0-1.461L41.092,9.36a1.011,1.011,0,0,0-1.42.042L36.04,13.276a1,1,0,0,0,.067,1.436l7.565,6.663-7.565,6.655a1,1,0,0,0-.067,1.436l3.632,3.875A1,1,0,0,0,41.092,33.392Z" transform="translate(815.002 132.247)" fill="#fff"/><path d="M35.025,15.92V12.736a12.736,12.736,0,0,0-25.473,0V15.92H0V42.985a7.96,7.96,0,0,0,7.96,7.96H36.617a7.96,7.96,0,0,0,7.96-7.96V15.92Zm-19.1-3.184a6.368,6.368,0,0,1,12.736,0V15.92H15.92Zm15.92,11.94a2.388,2.388,0,1,1,2.388-2.388A2.388,2.388,0,0,1,31.841,24.677Zm-19.1,0a2.388,2.388,0,1,1,2.388-2.388A2.388,2.388,0,0,1,12.736,24.677Z" transform="translate(694.797 171.095)" fill="#fff"/><path d="M25.274,28.433A14.216,14.216,0,1,0,11.057,14.216,14.22,14.22,0,0,0,25.274,28.433Zm12.637,3.159h-5.44a17.186,17.186,0,0,1-14.394,0h-5.44A12.636,12.636,0,0,0,0,44.229v1.58a4.74,4.74,0,0,0,4.739,4.739h41.07a4.74,4.74,0,0,0,4.739-4.739v-1.58A12.636,12.636,0,0,0,37.911,31.592Z" transform="translate(942.108 171.685)" fill="#fff"/><g transform="translate(938.811 420.576)"><path d="M42.9,33.449A2.673,2.673,0,0,1,43.26,32.1a3.714,3.714,0,0,1,.232-.342A17.876,17.876,0,0,0,46.537,21.8c.033-10.172-8.55-18.424-19.163-18.424A19.031,19.031,0,0,0,8.586,18.037a17.729,17.729,0,0,0-.408,3.773A18.714,18.714,0,0,0,27.043,40.466a22.721,22.721,0,0,0,5.207-.849c1.247-.342,2.482-.794,2.8-.916a2.917,2.917,0,0,1,1.026-.188,2.868,2.868,0,0,1,1.114.221l6.255,2.218a1.492,1.492,0,0,0,.43.11.878.878,0,0,0,.883-.883,1.417,1.417,0,0,0-.055-.3Z" transform="translate(2.733 0)" fill="#fff"/><path d="M33.218,35.96c-.4.11-.9.232-1.456.353a20.362,20.362,0,0,1-3.751.5A18.714,18.714,0,0,1,9.145,18.154a20.858,20.858,0,0,1,.165-2.361c.066-.474.143-.949.254-1.412.11-.5.243-.993.386-1.478l-.883.783A16.418,16.418,0,0,0,3.375,26.031a16.235,16.235,0,0,0,2.736,9.047c.254.386.4.684.353.883S5.151,42.8,5.151,42.8a.885.885,0,0,0,.3.849.9.9,0,0,0,.563.2.791.791,0,0,0,.32-.066l6.189-2.438a1.724,1.724,0,0,1,1.324.022,18.568,18.568,0,0,0,6.7,1.324,17.327,17.327,0,0,0,13.25-6.079s.353-.485.761-1.059C34.144,35.7,33.681,35.839,33.218,35.96Z" transform="translate(0 5.422)" fill="#fff"/></g><path d="M42.473,26.929H17.8l.551,2.693H40.943a2.02,2.02,0,0,1,1.969,2.467l-.464,2.043a4.714,4.714,0,1,1-5.352.876H19.454a4.712,4.712,0,1,1-5.642-.721L7.9,5.386H2.02A2.02,2.02,0,0,1,0,3.366V2.02A2.02,2.02,0,0,1,2.02,0h8.628a2.02,2.02,0,0,1,1.979,1.615L13.4,5.386H46.451A2.02,2.02,0,0,1,48.42,7.853l-3.978,17.5A2.02,2.02,0,0,1,42.473,26.929ZM33.916,16.157H30.295V11.108a1.01,1.01,0,0,0-1.01-1.01h-2.02a1.01,1.01,0,0,0-1.01,1.01v5.049H22.634a1.01,1.01,0,0,0-.714,1.724l5.641,5.641a1.01,1.01,0,0,0,1.428,0l5.641-5.641A1.01,1.01,0,0,0,33.916,16.157Z" transform="translate(816.899 462.712)" fill="#fff"/><path d="M46.669,2.25H4.243A4.244,4.244,0,0,0,0,6.493V37.605a4.244,4.244,0,0,0,4.243,4.243H46.669a4.244,4.244,0,0,0,4.243-4.243V6.493A4.244,4.244,0,0,0,46.669,2.25ZM15.556,10.735A5.657,5.657,0,1,1,9.9,16.392,5.662,5.662,0,0,1,15.556,10.735Zm9.9,20.93a1.854,1.854,0,0,1-1.98,1.7H7.637a1.854,1.854,0,0,1-1.98-1.7v-1.7c0-2.811,2.661-5.091,5.94-5.091h.442a9.1,9.1,0,0,0,7.036,0h.442c3.279,0,5.94,2.28,5.94,5.091ZM45.255,27a.709.709,0,0,1-.707.707H31.82A.709.709,0,0,1,31.113,27V25.585a.709.709,0,0,1,.707-.707H44.548a.709.709,0,0,1,.707.707Zm0-5.657a.709.709,0,0,1-.707.707H31.82a.709.709,0,0,1-.707-.707V19.928a.709.709,0,0,1,.707-.707H44.548a.709.709,0,0,1,.707.707Zm0-5.657a.709.709,0,0,1-.707.707H31.82a.709.709,0,0,1-.707-.707V14.271a.709.709,0,0,1,.707-.707H44.548a.709.709,0,0,1,.707.707Z" transform="translate(644 297)" fill="#fff"/><path d="M46.2,38.342a4.614,4.614,0,0,0,4.6-4.62l.023-23.1A4.634,4.634,0,0,0,46.2,6H9.24a4.634,4.634,0,0,0-4.62,4.62v23.1a4.634,4.634,0,0,0,4.62,4.62H0v4.62H55.443v-4.62ZM9.24,10.62H46.2v23.1H9.24Z" transform="translate(990.844 292.967)" fill="#fff"/><path d="M2.857,39.385a2.853,2.853,0,0,0,2.857,2.856H20V27.959H2.857Zm22.852,2.856H39.991a2.853,2.853,0,0,0,2.857-2.856V27.959H25.709ZM42.848,13.676H39.089a7.783,7.783,0,0,0,.9-3.571A7.867,7.867,0,0,0,32.136,2.25c-3.713,0-6.115,1.9-9.194,6.1-3.08-4.2-5.481-6.1-9.194-6.1a7.867,7.867,0,0,0-7.855,7.855,7.674,7.674,0,0,0,.9,3.571H2.857A2.853,2.853,0,0,0,0,16.533v7.141A1.432,1.432,0,0,0,1.428,25.1H44.276A1.432,1.432,0,0,0,45.7,23.674V16.533A2.853,2.853,0,0,0,42.848,13.676Zm-29.11,0a3.571,3.571,0,1,1,0-7.141c1.776,0,3.089.295,7.686,7.141H13.738Zm18.4,0H24.45c4.588-6.829,5.865-7.141,7.686-7.141a3.571,3.571,0,1,1,0,7.141Z" transform="translate(696 425)" fill="#fff"/><text transform="translate(293 588)" fill="#bcb8ce" font-size="38" font-family="Poppins-Medium, Poppins" font-weight="500"><tspan x="-99.028" y="0">Continuity</tspan></text><g transform="translate(-4 -6)"><text transform="translate(228 268)" fill="#bcb8ce" font-size="38" font-family="Poppins-Medium, Poppins" font-weight="500"><tspan x="-102.163" y="0">Innovation</tspan></text><g transform="translate(67 230.141)"><g transform="translate(5.425 3.883)"><g transform="translate(0 0)"><path d="M93.717,21.74a2.029,2.029,0,0,0-3.826.007H85.7V19.035h2.712a.678.678,0,0,0,.678-.678h0V15.519a2.034,2.034,0,1,0-1.356,0v2.159H85.7V16.323a.678.678,0,0,0-.678-.678H83.664V12.129a2.034,2.034,0,1,0-1.356,0v3.515H79.6V4.819a.678.678,0,0,0-.678-.678h0C70.553,4.141,64,10.2,64,17.928a28.007,28.007,0,0,0,3.8,12.689c.422.746.971,1.53,1.553,2.36,1.231,1.754,2.6,3.727,2.749,5.445a1.927,1.927,0,0,0-.815,1.609,2.014,2.014,0,0,0,.449,1.259,2.091,2.091,0,0,0-.622,1.5,2.036,2.036,0,0,0,2.034,2.034H84.681a2.047,2.047,0,0,0,2.034-2.06v-.022a2.025,2.025,0,0,0-.624-1.461,2.094,2.094,0,0,0,.451-1.3,1.945,1.945,0,0,0-1.948-1.941l-.086,0H79.6V25.137h1.356v2.034a.678.678,0,0,0,.678.678h2.035v.8a2.034,2.034,0,1,0,1.356,0V27.171a.678.678,0,0,0-.678-.678H82.308V25.137H85.02a.678.678,0,0,0,.678-.678h0V23.1h4.193a2.031,2.031,0,0,0,3.826-1.363Zm-5.307-8.808a.678.678,0,1,1-.678.678A.678.678,0,0,1,88.411,12.932ZM70.469,32.2c-.563-.8-1.094-1.56-1.483-2.249-2.2-3.9-3.629-8.621-3.629-12.021,0-6.762,5.606-12.1,12.883-12.416v4.737c-.18.013-.364.03-.56.054a.678.678,0,0,0-.581.533l-.207.983q-.255.061-.509.137l-.676-.754a.677.677,0,0,0-.771-.171A10.2,10.2,0,0,0,72.8,12.276a.678.678,0,0,0-.236.753l.311.948c-.128.121-.253.246-.374.373l-.947-.311a.682.682,0,0,0-.753.236,10.177,10.177,0,0,0-1.247,2.134.678.678,0,0,0,.171.771l.754.675q-.076.251-.136.5l-1.054.211a.678.678,0,0,0-.545.665v2.312a.678.678,0,0,0,.545.665l1.054.211q.06.252.136.5l-.754.675a.679.679,0,0,0-.171.771A10.183,10.183,0,0,0,70.8,26.507a.681.681,0,0,0,.753.236l.947-.311c.121.128.246.253.374.373l-.311.947a.679.679,0,0,0,.236.753,10.18,10.18,0,0,0,2.134,1.247.679.679,0,0,0,.771-.171l.676-.754q.254.077.509.137l.206.982a.678.678,0,0,0,.581.534c.2.024.38.04.561.054v7.511h-4.8C73.157,36.046,71.742,34.013,70.469,32.2Zm2.346-11.807a6.11,6.11,0,0,0,5.425,6.063v2.332l-.112-.534a.678.678,0,0,0-.543-.528A7.347,7.347,0,0,1,76.4,27.4a.689.689,0,0,0-.229-.04.677.677,0,0,0-.5.226l-.638.711a8.791,8.791,0,0,1-1.021-.6l.294-.9a.679.679,0,0,0-.206-.73,7.421,7.421,0,0,1-.868-.867A.682.682,0,0,0,72.5,25l-.9.295a8.8,8.8,0,0,1-.6-1.021l.712-.638a.679.679,0,0,0,.186-.734,7.386,7.386,0,0,1-.319-1.181.678.678,0,0,0-.535-.544l-.948-.19v-1.2l.948-.189a.678.678,0,0,0,.535-.544,7.4,7.4,0,0,1,.318-1.182.678.678,0,0,0-.186-.734l-.711-.637a8.91,8.91,0,0,1,.6-1.021l.9.295a.682.682,0,0,0,.729-.205A7.587,7.587,0,0,1,74.1,14.7a.677.677,0,0,0,.205-.728l-.294-.9a8.843,8.843,0,0,1,1.02-.6l.638.711a.681.681,0,0,0,.734.186,7.329,7.329,0,0,1,1.181-.319.678.678,0,0,0,.543-.528L78.239,12v2.331A6.11,6.11,0,0,0,72.815,20.391ZM78.239,15.7v9.385a4.74,4.74,0,0,1,0-9.385Zm7.12,27.093a.679.679,0,0,1-.678.678H73.154a.691.691,0,0,1-.679-.7q0-.012,0-.024a.679.679,0,0,1,.678-.678H84.681a.691.691,0,0,1,.679.7Q85.36,42.779,85.359,42.791Zm-.852-3.39a.621.621,0,0,1,.678.63.679.679,0,0,1-.678.678H73.327a.691.691,0,0,1-.679-.7q0-.012,0-.024a.612.612,0,0,1,.638-.586l.04,0h11.18Zm-.166-9.517a.678.678,0,1,1-.678.678A.678.678,0,0,1,84.342,29.884ZM82.986,9.542a.678.678,0,1,1-.678.678A.678.678,0,0,1,82.986,9.542Zm1.356,14.239H79.6V17h4.746ZM91.8,23.1a.678.678,0,1,1,.678-.678A.678.678,0,0,1,91.8,23.1Z" transform="translate(-64 -4.141)" fill="#bcb8ce"/></g></g><g transform="translate(26.248 34.878)"><path d="M310.313,369.828a11.5,11.5,0,0,0-.633,1.324l1.261.5a10.139,10.139,0,0,1,.56-1.168Z" transform="translate(-309.68 -369.828)" fill="#bcb8ce"/></g><g transform="translate(27.62 32.49)"><path d="M326.654,341.648c-.267.383-.532.772-.787,1.165l1.138.736c.246-.38.5-.756.761-1.127Z" transform="translate(-325.867 -341.648)" fill="#bcb8ce"/></g><g transform="translate(29.198 30.234)"><path d="M345.24,315.031c-.229.363-.484.738-.751,1.124l1.114.773c.28-.4.546-.8.785-1.175Z" transform="translate(-344.489 -315.031)" fill="#bcb8ce"/></g><g transform="translate(30.612 27.87)"><path d="M361.777,287.148q-.292.61-.609,1.206l1.2.64q.333-.623.637-1.261Z" transform="translate(-361.168 -287.148)" fill="#bcb8ce"/></g><g transform="translate(31.778 25.382)"><path d="M375.424,257.789c-.158.419-.325.839-.5,1.255l1.248.531q.277-.653.524-1.31Z" transform="translate(-374.921 -257.789)" fill="#bcb8ce"/></g><g transform="translate(33.851 17.535)"><path d="M400.787,165.211l-1.356.011v.124c0,.378-.018.78-.053,1.193l1.352.114c.038-.451.057-.891.057-1.307Z" transform="translate(-399.379 -165.211)" fill="#bcb8ce"/></g><g transform="translate(33.593 14.649)"><path d="M397.66,131.156l-1.32.309a11.723,11.723,0,0,1,.226,1.285l1.347-.16A13.144,13.144,0,0,0,397.66,131.156Z" transform="translate(-396.34 -131.156)" fill="#bcb8ce"/></g><g transform="translate(32.72 11.908)"><path d="M387.254,98.828l-1.219.593a11.855,11.855,0,0,1,.506,1.2l1.277-.454A13.046,13.046,0,0,0,387.254,98.828Z" transform="translate(-386.035 -98.828)" fill="#bcb8ce"/></g><g transform="translate(31.326 9.453)"><path d="M370.648,69.859l-1.062.844a12.341,12.341,0,0,1,.758,1.066l1.146-.724A13.677,13.677,0,0,0,370.648,69.859Z" transform="translate(-369.586 -69.859)" fill="#bcb8ce"/></g><g transform="translate(29.491 7.384)"><g transform="translate(0 0)"><path d="M348.81,45.445l-.864,1.045a12.8,12.8,0,0,1,.966.887l.967-.951A14.238,14.238,0,0,0,348.81,45.445Z" transform="translate(-347.946 -45.445)" fill="#bcb8ce"/></g></g><g transform="translate(27.312 5.767)"><path d="M322.872,26.375l-.645,1.193c.387.209.766.438,1.127.681l.757-1.126C323.714,26.857,323.3,26.605,322.872,26.375Z" transform="translate(-322.227 -26.375)" fill="#bcb8ce"/></g><g transform="translate(24.888 4.642)"><path d="M294.044,13.1l-.411,1.293c.422.134.838.287,1.236.456l.53-1.248C294.962,13.417,294.506,13.249,294.044,13.1Z" transform="translate(-293.633 -13.102)" fill="#bcb8ce"/></g><g transform="translate(22.312 4.02)"><g transform="translate(0 0)"><path d="M263.411,5.758,263.238,7.1c.437.056.875.132,1.3.227l.293-1.324C264.367,5.9,263.889,5.82,263.411,5.758Z" transform="translate(-263.238 -5.758)" fill="#bcb8ce"/></g></g><g transform="translate(1.407 40.438)"><g transform="translate(0 0)"><rect width="2" height="1" transform="translate(-0.407 0.421)" fill="#bcb8ce"/></g></g><g transform="translate(1.407 43.252)"><g transform="translate(0 0)"><rect width="2" height="2" transform="translate(-0.407 -0.393)" fill="#bcb8ce"/></g></g><g transform="translate(2.814 41.845)"><g transform="translate(0 0)"><rect width="1" height="1" transform="translate(0.186 0.014)" fill="#bcb8ce"/></g></g><g transform="translate(0 41.845)"><g transform="translate(0 0)"><rect width="1" height="1" transform="translate(0 0.014)" fill="#bcb8ce"/></g></g><g transform="translate(38.69 3.859)"><g transform="translate(0 0)"><rect width="1" height="1" transform="translate(0.31)" fill="#bcb8ce"/></g></g><g transform="translate(38.69 6.673)"><g transform="translate(0 0)"><rect width="1" height="1" transform="translate(0.31 0.186)" fill="#bcb8ce"/></g></g><g transform="translate(40.096 5.266)"><g transform="translate(0 0)"><rect width="2" height="2" transform="translate(-0.096 -0.407)" fill="#bcb8ce"/></g></g><g transform="translate(37.283 5.266)"><g transform="translate(0 0)"><rect width="2" height="2" transform="translate(-0.283 -0.407)" fill="#bcb8ce"/></g></g></g></g><text transform="translate(262 425)" fill="#bcb8ce" font-size="38" font-family="Poppins-Medium, Poppins" font-weight="500"><tspan x="-105.735" y="0">Integration</tspan></text><g transform="translate(98 394.798)"><path d="M48,160h2.142v1.071H48Zm0,0" transform="translate(-44.787 -149.29)" fill="#bcb8ce"/><path d="M31.6,8.568A1.609,1.609,0,0,0,33.2,6.962V1.607A1.609,1.609,0,0,0,31.6,0H24.1a1.609,1.609,0,0,0-1.607,1.607V6.962A1.609,1.609,0,0,0,24.1,8.568h1.607V9.639H24.634V10.71h2.678v5.355H25.1a3.744,3.744,0,0,0-1.542-.912c0-.054,0-.106,0-.159a4.281,4.281,0,0,0-7.892-2.3,4.262,4.262,0,0,0-1.747-.375,4.308,4.308,0,0,0-4,2.763,3.723,3.723,0,0,0-1.13.45H4.82V13.924H6.962a1.609,1.609,0,0,0,1.607-1.607V1.607A1.609,1.609,0,0,0,6.962,0H1.607A1.609,1.609,0,0,0,0,1.607v10.71a1.609,1.609,0,0,0,1.607,1.607H3.749V16.6h3.9a3.728,3.728,0,0,0-.521,1.071H4.82v5.891H2.678A1.609,1.609,0,0,0,1.071,25.17v4.82H0V31.6A1.609,1.609,0,0,0,1.607,33.2h8.568A1.609,1.609,0,0,0,11.782,31.6V29.989H10.71V25.17A1.609,1.609,0,0,0,9.1,23.563H5.891v-4.82H6.962a3.754,3.754,0,0,0,3.749,3.749H22.492A3.751,3.751,0,0,0,26.2,19.279h2.185v4.284H24.634V33.2H33.2V23.563H29.454V18.208H26.2a3.706,3.706,0,0,0-.333-1.071h2.52V10.71H31.06V9.639H29.989V8.568Zm-24.1,0H1.071V3.213H7.5Zm-5.891-7.5H6.962a.536.536,0,0,1,.536.536v.536H1.071V1.607A.536.536,0,0,1,1.607,1.071ZM1.071,12.317V9.639H7.5v2.678a.536.536,0,0,1-.536.536H1.607A.536.536,0,0,1,1.071,12.317ZM10.71,31.6a.536.536,0,0,1-.536.536H1.607a.536.536,0,0,1-.536-.536V31.06H10.71ZM9.639,25.17v4.82h-7.5V25.17a.536.536,0,0,1,.536-.536H9.1A.536.536,0,0,1,9.639,25.17Zm16.066,6.962V28.918h6.426v3.213Zm6.426-4.284H25.705V24.634h6.426Zm-9.639-6.426H10.71a2.677,2.677,0,0,1-.321-5.334l.351-.042.1-.34A3.2,3.2,0,0,1,15.6,13.867l.511.315.255-.545A3.206,3.206,0,0,1,22.45,15.49l-.081.53.53.08a2.676,2.676,0,0,1-.406,5.321ZM24.1,1.071h7.5a.536.536,0,0,1,.536.536V5.355H23.563V1.607A.536.536,0,0,1,24.1,1.071Zm-.536,5.891V6.426h8.568v.536A.536.536,0,0,1,31.6,7.5H24.1A.536.536,0,0,1,23.563,6.962Zm5.355,2.678H26.776V8.568h2.142Zm0,0" fill="#bcb8ce"/><path d="M400,384h1.071v1.071H400Zm0,0" transform="translate(-373.224 -358.295)" fill="#bcb8ce"/><path d="M448,448h1.071v1.071H448Zm0,0" transform="translate(-418.011 -418.011)" fill="#bcb8ce"/><path d="M432,384h2.142v1.071H432Zm0,0" transform="translate(-403.082 -358.295)" fill="#bcb8ce"/><path d="M400,448h2.142v1.071H400Zm0,0" transform="translate(-373.224 -418.011)" fill="#bcb8ce"/></g><g transform="translate(126 528.797)"><path d="M36.267,202.443a1.387,1.387,0,0,0-1.944.265q-.133.176-.274.347a14.88,14.88,0,0,1-5.579,4.114l-.034.016A16.322,16.322,0,0,1,5.2,192.748c0-.072,0-.145,0-.217H6.9a.718.718,0,0,0,.508-1.226l-3.092-3.092a.718.718,0,0,0-1.016,0L.212,191.3a.718.718,0,0,0,.508,1.226h1.7a18.975,18.975,0,0,0,2.956,10.074l.017.027A18.992,18.992,0,0,0,15.57,210.5a20.111,20.111,0,0,0,6.114.966,18.409,18.409,0,0,0,7.93-1.768,17.416,17.416,0,0,0,6.918-5.31A1.387,1.387,0,0,0,36.267,202.443Z" transform="translate(0 -146.834)" fill="#bcb8ce"/><path d="M105.18,45.411h-1.7c0-.38-.011-.765-.034-1.143A19.21,19.21,0,0,0,69.316,33.342a1.387,1.387,0,1,0,2.157,1.745q.155-.192.317-.379a16.436,16.436,0,0,1,28.882,9.724c.01.163.017.327.022.492s.007.326.007.488H99a.718.718,0,0,0-.508,1.226l3.092,3.092a.718.718,0,0,0,1.016,0l3.092-3.092A.718.718,0,0,0,105.18,45.411Z" transform="translate(-62.624 0)" fill="#bcb8ce"/></g><g transform="translate(1 -28)"><text transform="translate(183 127)" fill="#bcb8ce" font-size="38" font-family="Poppins-Medium, Poppins" font-weight="500"><tspan x="-85.272" y="0">Freedom</tspan></text><g transform="translate(233.999 456.241)"><g transform="translate(-207.999 -364)"><path d="M44.963,296.171a3.713,3.713,0,0,0-4.5-.485c-2.2,1.346-5.892,3.579-8.6,5.215a8.621,8.621,0,0,1-1.557.738,2.927,2.927,0,0,0-1.258-3.448l-7.219-4.669a10.251,10.251,0,0,0-10.921-.027l-4.321,2.763-.948-.863a.96.96,0,0,0-1.267,0l-4.108,3.74a.765.765,0,0,0,0,1.154.96.96,0,0,0,1.267,0L5,297.127l9.011,8.2-3.474,3.163a.765.765,0,0,0,0,1.154.959.959,0,0,0,1.267,0l3.98-3.623,8.249,2.67a12.077,12.077,0,0,0,3.715.583,11.893,11.893,0,0,0,6.392-1.837l.64-.409A.771.771,0,0,0,35,305.894a.953.953,0,0,0-1.248-.2l-.64.409a10.107,10.107,0,0,1-8.477,1.052L15.2,304.1l-7.328-6.672,4.064-2.6a8.311,8.311,0,0,1,8.854.021l7.219,4.669a1.361,1.361,0,0,1,.421,1.945,1.669,1.669,0,0,1-2.06.515c-2.546-1.182-6.61-3.063-6.61-3.063h0a.963.963,0,0,0-.406-.089.859.859,0,0,0-.9.816.811.811,0,0,0,.49.727h0s4.063,1.881,6.608,3.062a3.658,3.658,0,0,0,1.536.339.983.983,0,0,0,.185.018,10.769,10.769,0,0,0,5.576-1.531c2.709-1.637,6.4-3.872,8.606-5.22a1.8,1.8,0,0,1,2.185.236,1.411,1.411,0,0,1,.43,1.186,1.474,1.474,0,0,1-.7,1.076l-3.755,2.4a.771.771,0,0,0-.218,1.137.953.953,0,0,0,1.248.2l3.755-2.4a3.106,3.106,0,0,0,1.448-2.237A2.972,2.972,0,0,0,44.963,296.171Z" transform="translate(-0.001 -268.118)" fill="#bcb8ce"/><path d="M208.017,117.989a.949.949,0,0,0,.633-.239.765.765,0,0,0,0-1.154.959.959,0,0,0-1.267,0,.765.765,0,0,0,0,1.154A.95.95,0,0,0,208.017,117.989Z" transform="translate(-188.563 -106.864)" fill="#bcb8ce"/><path d="M140.833,11.718h1.589l.625,4.137a9.048,9.048,0,0,0,3.39,5.714,10.764,10.764,0,0,0,6.679,2.279,10.934,10.934,0,0,0,4.555-.982,12.318,12.318,0,0,1,7.829.232.969.969,0,0,0,.373.074.922.922,0,0,0,.75-.368,17.769,17.769,0,0,0,2.906-7.574.783.783,0,0,0-.329-.717.965.965,0,0,0-.839-.141l-3.6,1.065a5.309,5.309,0,0,0,.613-2.506l0-.153a4.482,4.482,0,0,0,.572-2.482l-.047-.723a3.824,3.824,0,0,0,.341-3.772l-.219-.485a5.21,5.21,0,0,0,.309-3.5L166.008.624A.855.855,0,0,0,165.38.03a.958.958,0,0,0-.876.208L161.909,2.6A12.435,12.435,0,0,1,157.7,5.113a13.965,13.965,0,0,0-6.215,4.351l-.133-.456A4.582,4.582,0,0,0,146.825,5.7a4.838,4.838,0,0,0-3.492,1.446,4.066,4.066,0,0,0-1.074,2.062l-1.876.989a.787.787,0,0,0-.416.918A.887.887,0,0,0,140.833,11.718Zm24.677,9.619a13.107,13.107,0,0,0-4.759-.635,9.114,9.114,0,0,0,1.853-2.793l.058-.138,4.85-1.434A16.233,16.233,0,0,1,165.51,21.337ZM144.684,8.217a2.966,2.966,0,0,1,2.141-.887A2.808,2.808,0,0,1,149.6,9.372c0,.013.006.026.01.038l.647,2.212a.87.87,0,0,0,.722.6.934.934,0,0,0,.892-.357l.682-.945a12.116,12.116,0,0,1,5.8-4.284,14.241,14.241,0,0,0,4.823-2.877l1.458-1.327a3.828,3.828,0,0,1-1.225,3.562l-1.148,1.045a.765.765,0,0,0,0,1.154.96.96,0,0,0,1.267,0l1.148-1.045.087-.081a2.383,2.383,0,0,1-.777,2.093l-.542.493h0a.765.765,0,0,0,0,1.154.948.948,0,0,0,.675.238,3.021,3.021,0,0,1-.391,1.07l-1.149,1.237a.765.765,0,0,0,.078,1.127.935.935,0,0,0,.508.21,4.1,4.1,0,0,1-.9,1.184,4.427,4.427,0,0,1-.7.52l-2.414.9a.794.794,0,0,0-.5,1.043.923.923,0,0,0,1.131.484l.4-.124a8.656,8.656,0,0,1-7.059,3.529c-4.161,0-7.726-2.83-8.293-6.584l-.81-5.364A2.432,2.432,0,0,1,144.684,8.217Z" transform="translate(-127.399 0)" fill="#bcb8ce"/><path d="M405.858,435.427a.954.954,0,0,0-.634.239.765.765,0,0,0,0,1.154.958.958,0,0,0,1.268,0,.765.765,0,0,0,0-1.154A.952.952,0,0,0,405.858,435.427Z" transform="translate(-368.677 -399.904)" fill="#bcb8ce"/></g></g></g></g></g></svg>